<svg id="Layer_1" data-name="Layer 1" xmlns="http://www.w3.org/2000/svg" viewBox="0 0 196.71 108"><defs><style>.cls-1{fill:#fff;}</style></defs><title>bsam_portfolio_logo</title><path class="cls-1" d="M58,28.66H58v0l0.26-.06v0l0.57-.14v0.05l0.21-.05v0l0.21-.05v0h0v0l0.15,0v0l0.16,0v0.05l0.16,0v0l0.15,0v0l0.11,0v0h0v0l0.1,0v0.05l0.16,0v0l0.15,0v0h0.06v0h0v0h0v0.05h0v0l0.11,0v0l0.1,0v0h0l0-.1h0.06l-0.08-.36h0.05l0-.14h0v0h0.05v0L61.53,28v0l0.11,0v0h0v0h0.05v0.05h0.05l0.3,1.33h0.06l0.09,0.41H62.22l0.13,0.6h0l0.38,1.7h0l0,0.13h0l0,0.14h0v0l-0.1,0v0l-0.11,0v0l-0.3.07v0l-0.15,0v0h0l0-.09h0l-0.07-.33h0l0-.13h0l0-.14H61.64l0-.14h0l0-.18h0l0-.14h0l0-.09H61.31l0-.1h0l0-.13h0l0-.1h0v0h0l0-.1H60.95v0h0l0-.13h0l0-.14h0l0-.14h0v0H60.57l0-.09h0v0h0l0-.1h0v0h0l0-.09H60.23V30.33h0v0h0v0h0v0h0v0H59.92V30.16h0l0-.09h0v0h0v0h0V30H59.6l0-.09h0v0h0l0-.1h0v0l-0.11,0v0h0v0h0v0h0V29.64h0v0l-0.11,0v0h0v0l-0.1,0V29.53H58.67v0l-0.1,0v0h0v0l-0.11,0v0l-0.15,0V29.41l-0.16,0v0l-0.26.06v0l-1,.26v0l-0.26.07v0l-0.21.05V30l-0.15,0v0l-0.16,0v0h0v0l-0.21.05v0h0v0.05l-0.06,0v0l-0.1,0v0h0v0h0v0.05l-0.11,0v0h0v0l-0.1,0v0l-0.06,0v0h0v0.05h0v0h0l0,0.09h0v0l-0.06,0V31.2h0v0h0v0h0v0h0l0,0.1-0.06,0,0,0.09h0v0h0v0h0l0,0.1h0v0l-0.06,0v0h0l0,0.1h0v0h0l0,0.13h0l0,0.1-0.06,0,0,0.13h0l0,0.1h0v0h0l0,0.14h0l0.08,0.27-0.06,0,0.05,0.18h0l0,0.09h0v0h0l0,0.14h0l0.08,0.27-0.06,0,0.06,0.23h0l0.05,0.18h0l0.69,2.45h0L55.3,37h0l0.12,0.41,0.06,0,0,0.13h0l0.05,0.18h0l0.08,0.27h0l0,0.14h0l0,0.14,0.06,0,0,0.13h0l0,0.14h0l0,0.13h0v0.05h0l0,0.09,0.06,0v0h0l0,0.1h0l0,0.13h0v0h0l0,0.1,0.06,0v0h0v0h0l0,0.1h0l0,0.09h0v0l0.06,0,0,0.1h0v0h0v0h0v0h0v0.05l0.06,0v0h0v0h0v0h0v0h0v0.05l0.06,0v0h0v0h0v0l0.09,0v0H58v0.05h0v0l0.09,0v0h0v0h0.06v0h0v0.05l0.09,0v0h0v0h0.06v0l0.09,0v0l0.1,0V40l0.14,0v0L59,40v0l0.09,0v0h0v0l0.1,0v0.05h0v0l0.09,0v0l0.15,0v0l0.19,0v0h0V40.2l0.24-.06v0l0.24-.06v0l0.24-.06v0l0.39-.1v0l0.09,0v0L61.39,40v0l0.43-.1v0l0.14,0v0l0.15,0V39.61l0.15,0v0l0.14,0v0l0.15,0v0l0.14,0v0h0.06V39.24l0.09,0v0h0v0h0v0h0.06v0h0V38.94l0.09,0v0h0v0H63v0h0v0h0V38.65h0l0-.09h0.06v0h0l0-.1h0v0h0l0-.09h0v0h0.06l0-.1h0v0h0v0l0.2,0v0h0v0h0v0h0l0,0.1h0.06l0,0.09H63.81l0,0.1h0l0,0.09h0v0h0l0,0.14h0l0,0.09H63.68l0,0.1h0l0,0.09h0v0h0v0h0l0,0.1H63.52v0h0v0h0v0h0v0.05h0l0,0.09H63.34v0h0v0h0v0.05h0v0H63.19v0h0v0l-0.09,0,0,0.1h0v0H63v0h0v0l-0.09,0v0.05h0v0l-0.15,0v0l-0.09,0v0l-0.1,0v0h0v0.05l-0.15,0v0l-0.14,0v0l-0.1,0v0l-0.09,0v0l-0.19,0v0.05l-0.19,0v0l-0.18,0v0l-0.19,0v0l-0.29.07v0l-0.18,0v0.05l-0.38.1v0l-0.19,0v0l-0.19,0v0l-0.18,0v0l-0.19,0v0l-0.1,0v0l-0.18,0V41.67l-0.15,0v0.05l-0.28.07V41.78l-0.29.08v0L58.24,42v0L58,42v0l-0.14,0v0l-0.1,0V41.88l-0.14,0v0l-0.1,0v0l-0.09,0v0l-0.15,0v0h0V41.8l-0.09,0v0h0v0l-0.1,0v0h0v0l-0.09,0V41.68l-0.1,0v0h0v0l-0.1,0v0h0v0l-0.09,0V41.56l-0.1,0v0l-0.09,0v0h0v0h0V41.46l-0.05,0v0l-0.09,0v0h0v0h0v0l-0.1,0,0-.05h0v0h0v0l-0.1,0v0h0v0h0l0-.1h0v0h0v0L55,41.1v0h0L55,41h0v0h0v0h0v0l-0.06,0v0h0l0-.05h0v0h0v0h0l0-.09-0.06,0,0-.05h0v0h0v0h0v0h0v0l-0.06,0,0-.05h0v0h0l0-.09h0v0l-0.06,0,0-.05h0l0-.09h0l0-.14h0l0-.09h0l0-.09-0.06,0v0h0l0-.09h0v0h0l0-.14h0l0-.09-0.06,0L53,39.53h0l-0.06-.18h0l0-.14h0v0h0l0-.13-0.06,0-0.06-.18h0l-0.1-.32h0l0-.09h0l-0.08-.27h0l-0.11-.36L52,38,52,37.78h0l-0.21-.67h0l-0.3-1h0l-0.15-.5h0l-0.05-.17,0.06,0-0.07-.22h0L51.24,35h0l-0.06-.18h0l0-.09h0l-0.11-.36,0.06,0,0-.09h0l0-.09h0l0-.13h0l0-.09h0l0-.14,0.06,0,0-.09h0l0-.14h0l0-.09h0v0h0l0-.09,0.06,0,0-.09h0v0h0l0-.09h0v0h0l0-.09,0.06,0v0h0l0-.1h0v0h0v0l0.06,0,0-.1h0v0h0v0h0v0l0.11,0v0h0l0-.05h0v0l0.1,0v0l0.06,0v0h0v0h0l0-.05h0v0h0v0l0.06,0v0l0.1,0v0h0l0-.05h0v0l0.06,0v0l0.1,0v0h0V31.16l0.11,0v0l0.1,0v0h0v0l0.11,0v0h0V30.81l0.15,0v0l0.11,0v0l0.15,0v0l0.16,0v0l0.21-.06V30.37l0.1,0v0l0.16,0v0l0.16,0v0l0.2-.05v0l0.16,0V29.93l0.1,0v0l0.21-.06v0l0.72-.2v0l0.26-.07v0l0.1,0V29.33l0.53-.14v0L58,28.7v0ZM51.8,35.43v0h0l0,0.05h0l0.05,0.17h0l0,0.05,0.9-.27v0l0.4-.12v0l0.34-.1,0-.1h0L53.46,35l-0.79.23v0Zm0.33,0.7v0l-0.1,0v0h0l0,0.09h0l0.08,0.28,0.69-.21v0l0.29-.09v0l0.6-.18,0-.05h0l0-.13h0l-0.05-.18h0v0h0v0L53,35.87v0h0v0ZM52.23,37l0.08,0.28h0l0,0.09L53.47,37v0l0.4-.12v0l0.09,0-0.07-.23h0l0-.05Zm0.34,0.74v0l-0.06,0L52.59,38l0.06,0v0l0.78-.23,0,0.05,0.39-.12,0-.05,0.14,0,0,0.05,0.24-.07,0-.1h0l0-.09h0l-0.05-.18Zm-0.87-3.23,0,0.09h0l0.06,0.18h0l0,0.13h0l0,0.1,0.84-.25,0-.05,0.25-.07,0,0.05,0.5-.15,0-.05,0.06,0v0h0L53.35,34Zm1.87,3.72v0L53,38.46l0,0.05h0L53,38.7h0l0,0.05,1.61-.47,0-.05h0l0-.09h0l0-.09h0l0-.05h0v0l-0.39.11v0h0v0Zm-1.8-4.57v0h0v0h0l0,0.05h0l0.07,0.23,0.75-.22v0l0.7-.21v0l0.19-.06-0.05-.18,0.06,0,0-.14-1.21.35v0ZM53.32,39v0h0l0,0.14h0l0,0.14h0v0h0v0L55.09,39v0h0l-0.06-.23h0v0h0V38.62h0v0l-0.24.07v0l-0.73.21v0l-0.34.1v0h0v0ZM52,32.82v0h0v0h0L52,33h0L52,33.22l1.51-.44v0h0v0h0v0h0l0-.1h0l0-.13Zm2,6.9L54.1,39.9h0v0l0.06,0v0h0v0l0.19-.06,0,0.05,1.25-.36-0.05-.18h0l0-.1-0.06,0v0h0v0Zm1.17,0.44v0l-0.38.11,0,0.05-0.06,0,0,0.09,0.06,0,0,0.09h0l0,0.05h0v0l0.09,0v0l1.49-.42,0-.14h0v0l-0.06,0v0h0v0h0v0h0V39.9l-0.58.16v0ZM52.6,32v0h0l0,0.1,0.16,0v0L53.52,32l0-.14-0.16,0v0Zm0.92-.8v0l-0.35.1v0h0l0,0.05h0l0,0.13,0.15,0v0l0.36-.1v0h0v0l0.16,0v0l0.1,0v0h0l0-.1-0.1,0v0Zm2.31,9.62v0h0l0,0.09h0V41h0v0h0v0l0.1,0v0h0v0l0.14,0,0,0.05,0.05,0v0L57,41v0l0.82-.22,0-.14-0.1,0v0h0v0l-0.09,0V40.55l-0.1,0v0l-0.09,0v0l-0.67.19v0l-0.24.07v0l-0.19.05v0ZM54.68,30.19v0l-0.21.06v0l-0.31.08v0l-0.16,0v0.05l-0.21.06v0l-0.2.06,0,0.09-0.06,0v0l0.72-.2v0l0.26-.07v0h0v0l0.16,0v0h0V30.3h0l0-.09h0v0Zm3.59,10.92v0L58,41.24v0l0.19-.05v0l0.09,0V41.3l0.19-.05V41.2l0.09,0v0l0.1,0v0l-0.1,0v0Zm0.67-.18v0h0v0L59.11,41l0-.09Zm0.8,0.13v0l-0.14,0V41.2H59.56v0h0.05v0l0.42-.11v0h0.05v0l0.24-.06v0l0.18,0v0l0.1,0,0-.1ZM58.64,28.93l0,0.09h0v0h0v0.05h0v0l0.11,0v0h0v0l0.1,0v0l0.16,0V29.2l0.52-.12,0-.14h0v0h0v0H59.61V28.84l-0.15,0v0l-0.42.1v0l-0.1,0v0Zm1.44,0.33v0l-0.16,0v0h0l0,0.1h0v0h0v0l0.46-.11v0l0.16,0v0h0l0-.18h0v0l-0.11,0v0Zm0.45,0.52v0.05h0v0h0l0,0.19h0v0h0v0h0v0h0v0l0.11,0v0.05l0.15,0V30.15l0.11,0v0l0.1,0,0-.09h0.06l0-.1H61.14l-0.05-.23Zm0.86,0.67v0l-0.11,0v0h0l0,0.1h0l0,0.09h0l0,0.1h0l0,0.09h0.06l0,0.09h0V31h0v0l0.1,0v0h0.06l0-.09h0l0-.1h0l-0.07-.32h0l0-.14h0v0Z"/><path class="cls-1" d="M76.64,25.17a0.39,0.39,0,0,1,.37.35,5.53,5.53,0,0,0-1.79,3.18c0,0.2,0,1,.23,2.48l0.26,1.93a5.1,5.1,0,0,1,0,.69,0.42,0.42,0,0,1,.09.23,6.18,6.18,0,0,1-.5,2.82,3.31,3.31,0,0,1-.65.83,5.16,5.16,0,0,1-2.11,1.21l-0.15,0c-0.23,0-.72.14-1.44,0.3v0l-2.42-.05A3.84,3.84,0,0,1,66,37.59a2.63,2.63,0,0,1-.65-1.31,13.38,13.38,0,0,0-.22-1.54L65,34.5a1.24,1.24,0,0,0-.14-0.37,1.33,1.33,0,0,0,0-.4l-0.06-.28a6.78,6.78,0,0,0-.24-0.85V32.35l-0.16-.47a1.45,1.45,0,0,0,0-.2,0.29,0.29,0,0,0-.09-0.13q-0.07-.64-0.15-1l-0.07-.33a0.05,0.05,0,0,0-.07,0s0,0,0-.06c-0.16-.55-0.25-0.88-0.27-1C63.75,28.4,63.69,28,63.68,28l-0.12,0-1,.21-0.14.13-0.11,0A1.56,1.56,0,0,1,61.83,28a0.51,0.51,0,0,1,.49-0.36c0.18,0,.36,0,0.49-0.06l0.32-.11a2.34,2.34,0,0,0,.45,0,1.36,1.36,0,0,0,.57-0.21l0.12,0,1.51-.3a0,0,0,0,0,0-.05l0.12,0,1.29-.29c1-.19,1.54-0.14,1.59.11a1.51,1.51,0,0,1-.68.27L67,27.25A1,1,0,0,0,67,28c0,0.07,0,.09.07,0.09l0,0.48,0.82,4.36a3.65,3.65,0,0,1,.06.63,1.81,1.81,0,0,1,.15.51L68.3,35a0,0,0,0,0,.06,0l0,0.11,0.05,0.28a0.42,0.42,0,0,0,.08.19,0.37,0.37,0,0,0,0,.2,2.42,2.42,0,0,0,1.49,1.56,5.12,5.12,0,0,0,2.2.16,0.37,0.37,0,0,0,.14-0.07H72.6c0.86-.21,1.28-0.39,1.26-0.54a0.36,0.36,0,0,0,.2,0,3.27,3.27,0,0,0,.81-1.6,2.94,2.94,0,0,0,0-.85l-0.06-.08a1.44,1.44,0,0,0,0-.35,0,0,0,0,0-.06,0V33.77l0-.29q-0.11-.79-0.16-1.55l-0.12-.43q0-.75-0.12-1.31-0.05-.36-0.42-2.2a4,4,0,0,0-2.14-1.41A1.28,1.28,0,0,1,71,26.26l0-.15a0.84,0.84,0,0,0,.48-0.17h0.38L73,25.76a2.21,2.21,0,0,0,.43-0.11l1.43-.11A11.7,11.7,0,0,0,76.64,25.17Zm-10.83,11a0.24,0.24,0,0,1,.23,0l0.6-.17,0.61-.12,0-.19A0.23,0.23,0,0,0,67,35.58l-0.92.18A0.3,0.3,0,0,0,65.81,36.13ZM65,28.25l-0.53.11a0.1,0.1,0,0,0-.09.11l0,0.19a0.66,0.66,0,0,1,.29,0c0.46-.13.83-0.22,1.11-0.28,0,0,0-.12,0-0.29a0.18,0.18,0,0,1-.18-0.07Zm-0.45,1v0l0.1,0.23L65,29.47c0.19,0,.5-0.08.92-0.13l0-.11A0.29,0.29,0,0,0,65.61,29l-0.53.11a0.47,0.47,0,0,0-.21.1,0.41,0.41,0,0,0-.22,0h0A0.1,0.1,0,0,0,64.51,29.28Zm0.18,0.86,0,0.24H65l0.62-.17,0.33,0A0.26,0.26,0,0,0,66.14,30l0-.24-0.11,0q-0.21,0-.2.09l-0.39,0L64.78,30A0.1,0.1,0,0,0,64.69,30.14Zm0.16,0.76,0,0.24a2.71,2.71,0,0,0,1.4-.13l0-.1,0-.24a0.29,0.29,0,0,0-.34-0.09l-1,.2A0.1,0.1,0,0,0,64.85,30.9ZM65,31.76l0,0.24,0.74-.09a0.85,0.85,0,0,0,.65-0.29l0-.19-0.89.18Zm0.16,0.76,0,0.1,0.1,0.23,1.2-.24a0.22,0.22,0,0,0,.13-0.17l0-.1a0.09,0.09,0,0,0-.13-0.08l-0.15,0a6.75,6.75,0,0,0-.77.21A1.45,1.45,0,0,0,65.18,32.52Zm0.24,1.15h0.27l0.83-.17,0.25-.1,0-.24a0.09,0.09,0,0,0-.12-0.08L66,33.2a3.2,3.2,0,0,1-.48.05Q65.34,33.32,65.42,33.67Zm0.13,0.62,0,0.1,0.1,0.23,1.14-.23a0.28,0.28,0,0,0,.09-0.32l0-.14-1.24.25A0.1,0.1,0,0,0,65.54,34.29Zm0.21,0.8a0.39,0.39,0,0,1,0,.15l0.17,0.06L67,35.09l0-.23L66.27,35a0,0,0,0,0,0,.05l-0.11,0Zm0.35,1.72,0,0.09a0.1,0.1,0,0,0,.12.08c0.43-.12.78-0.2,1.05-0.26l0.21,0,0-.14a0.23,0.23,0,0,0-.19-0.12l-0.4.08a0,0,0,0,0,0,.06l-0.11,0-0.36.07C66.19,36.67,66.1,36.74,66.11,36.82Zm0.36,0.72v0a0.33,0.33,0,0,0,.24.15l0.4-.08q0.27-.05.87-0.12l0.08-.16a0.29,0.29,0,0,0-.3-0.19c-0.17,0-.45,0-0.77.11A0.62,0.62,0,0,0,66.47,37.54Zm0.93,0.71v0a0.64,0.64,0,0,0,.6.13l1.3-.25a0.09,0.09,0,0,0,.08-0.12,1.64,1.64,0,0,1-.51-0.2l-1.41.27A0.1,0.1,0,0,0,67.4,38.24Zm1.95,0.42c0,0.2.61,0.22,1.71,0.09v0c0.24-.1.77-0.27,1.61-0.51l0.12-.18-0.9.15a3.71,3.71,0,0,0-.54.15,0.85,0.85,0,0,0-.42,0l-0.25,0a0,0,0,0,0,0,.05,0.89,0.89,0,0,0-.37,0ZM72.9,26.27v0a0.11,0.11,0,0,0,.12.08H73.1a0.29,0.29,0,0,0,.3-0.19Zm0.6-.09v0H74a0.09,0.09,0,0,0,.1-0.11Zm0.13,0.52v0.05l0.52,0.17,0,0.33,0.16,0a0.57,0.57,0,0,1,.1-0.45l0-.14a0.09,0.09,0,0,0-.12-0.08l-0.38.1a0.09,0.09,0,0,0-.11-0.08l-0.11,0A0.11,0.11,0,0,0,73.63,26.7Zm0.9-.66v0.1l0.32,0V26Z"/><path class="cls-1" d="M77.94,25.28l0.36,0v0L79,25.21v0H79v0l1.45-.15v0l0.27,0v0l0.31,0v0h0.05v0l0.18,0V25l0.36,0V25l0.36,0V25l0.23,0V24.9l0.46,0v0.05l0.22,0V24.84l2.14-.16v0.05l0.68,0v0H86v0.05l0.46,0v0h0.18v0.05h0.13v0H87v0.05h0.13v0h0.09V25h0.14v0h0.13V25.1h0.09v0H87.7v0.05h0.09v0h0v0h0.09v0.05H88v0h0v0.05h0.05v0h0v0.05h0.05v0h0.09V25.6h0v0h0V25.7h0v0.1h0.05v0h0v0.05h0.05v0h0V26h0.05v0.1h0v0.14h0v0.1H88.8v0.15h0v0.15H88.9v0h0v0.15h0V27h0v0.15H89.1l0,0.79h0v0.25h0l0,0.44h0v0.2h0V29h0v0.15h0v0.14h0v0.15h0v0h0v0.15h0v0.14h0v0.15h0v0h0v0.1h0v0.05h0v0h0v0.1h0v0h0V30.4H88.44v0h0V30.5h0v0h0V30.6h0v0h0v0.05h0v0h0v0.05h0v0H88v0.05H87.94v0h0V31H87.82v0H87.73v0.05h0v0H87.61v0h0v0.05H87.44v0H87.31V31.4H87.19v0H87v0.05H86.93v0H86.8v0.05H86.72v0H86.55v0.05h0v0.1l0.26,0v0h0.17v0.05h0.13v0h0.09V32h0v0h0.09V32.1h0v0h0.09v0.06h0v0h0.09v0h0v0.05h0.09v0h0v0.05h0v0h0v0.05h0v0h0v0.05h0v0.1h0v0h0v0.1h0V32.9h0v0h0V33h0v0.1h0v0.1h0v0.1h0v0h0v0.05h0v0h0v0.05h0v0.1h0v0.1h0v0h0v0.05h0v0h0v0.1h0V34h0V34.1h0v0h0v0.1h0v0h0v0.15h0v0h0v0.05h0v0h0v0.05h0.09v0h0v0.06h0v0h0v0.05h0v0h0v0.05h0v0h0V35h0v0h0v0h0v0.05H89.9v0H90v0.05h0v0h0v0.05h0v0h0v0.06h0.08v0h0.08v0.05h0.09v0h0.12v0.05h0v0h0.12v0.05h0.13v0H91V35.8h0.13V35.75h0.08V35.8h0.24V35.74h0.09v0h0.13V35.63h0.08v0h0.09V35.53H91.9v0H92V35.42h0v0h0.08V35.32h0v0h0v-0.1H92.4v0h0v0.05h0v0.34h0v0.05h0v0.1h0v0h0v0.1h0V36h0v0.09h0v0.1h0v0.15h0v0.1h0v0.15h0v0.1h0v0.05h0v0H91.89v0.05h0v0H91.77v0.06h0v0H91.64v0H91.56v0.05h0v0h0v0.05h0v0h0v0.06H91.32v0h0v0.05H91.19v0H91.11v0.05H91v0H90.86v0.05H90.45v0l-0.62,0v0H89.62V37.58H89.45v0H89.28V37.5H89.11v0H89V37.41H88.9v0H88.77V37.32H88.65v0H88.56V37.23h0v0H88.42V37.14h0v0h0v0h0V37h0v0H88.16V36.91h0v0H88V36.81h0v0H87.91V36.72h0v0h0V36.62h0v0h0V36.53h0v0H87.55V36.44h0v0h0V36.35h0v0h0V36.25h0v0h0v0h0V36.11h0v0H87.11V36h0v0H87V35.93h0v0h0V35.83h0v-0.1h0v-0.1h0v0h0V35.55h0v0h0V35.45h0v0h0V35.36h0v-0.1h0v0H86.33v0h0V35.13h0v0h0V34.94h0v0h0V34.8h0V34.7h0V34.65h0v0h0V34.56h0v-0.1h0v0h0v-0.1h0v0h0V34.13h0v0h0V34h0V33.94h0v0h0V33.8h0V33.75h0v0h0V33.65h0v-0.1h0v0h0v-0.1h0V33.37h0V33.28H85V33.23h0v0h0V33.1h0V33h0v-0.1h0v0H84.63V32.86h0v0h0V32.77H84.45v0h0V32.68H84.27v0h0V32.59h0v0H84.09V32.5h0v0h0v0h0V32.37h0v0H83.81V32.28H83.71v0h0V32.19h0v0H83.53V32.1h0v0h0V32H83.34v0h0V31.92H83.21v0L83,31.9V31.85H82.89v0H82.76V31.77H82.62v0H82.53V31.68H82.4v0.05H82.32v0.1h0l0,0.44h0l0,0.4h0v0.1h0l0,0.34h0v0.1h0L82.43,34h0l0.14,1.53h0l0,0.44h0l0,0.25h0l0,0.39h0l0.06,0.69h0.08v0.05l1-.09v0H84v0.06h0l0,0.19h0v0.05h0v0h0v0.06H83.85v0H83.73V37.8l-0.5,0V37.79H83.06v0l-0.45,0v0l-0.25,0v0l-0.54.05v0H81.69v0l-0.63.06v0l-0.29,0v0l-1.21.13v0H79.45v0l-0.38,0V38.11H79v0h0V38h0l0-.2h0v0l0.17,0V37.66l1-.12v0h0V37.4h0l-0.1-.89h0l0-.44h0l-0.23-2.17h0l0-.44h0v-0.1h0l0-.35h0l-0.06-.54h0l-0.08-.78h0l0-.15h0l-0.1-.93h0l-0.22-2.07h0l-0.13-1.18h0l0-.2h0L79,26.51h0l0-.15h0L79,25.82h0v0h0V25.73l-0.18,0V25.8l-0.63.07v0l-0.32,0v0l-0.13,0V25.87l-0.36,0v0H77.18V25.82h0l0-.2h0v0h0.05V25.52h0.09v0l0.27,0V25.38l0.4,0v0ZM80.58,36.6v0h0v0.05h0v0.14h0v0l0.21,0v0.05l1-.1v-0.1h0V36.58h0V36.53l-0.92.09v0ZM79.44,25.67v0.1h0v0.05h0v0h0v0l0.22,0v0.05l0.82-.08V25.8h0.05V25.65l-0.78.08v0H79.68V25.64Zm0.17,0.73v0.05H79.53v0.1h0v0.1h0v0h0v0.05l0.49-.05v0l0.23,0v0l0.36,0V26.59h0.08l0-.2h0v0l-0.4,0V26.33Zm0.08,1.68v0.05h0l0,0.24h0v0.05l0.41,0v0l0.27,0v0l0.49,0,0-.3-1,.1V28.06Zm1,0.7v0l-0.89.09V29h0v0.1h0l0,0.2h0v0H80v0.05l0.18,0v0l0.18,0v0l0.36,0V29.22l0.34,0v0h0l0-.3h0V28.79h0v0ZM80.1,29.83v0.05l-0.23,0V30h0v0h0v0.1l0.67-.07v0.05l0.3,0V30h0V30.1l0.22,0V30h0v-0.1h0v-0.1h0v0H81V29.74Zm0.17,0.84v0l-0.35,0,0,0.14h0v0.05l0.93-.09v0l0.25,0v0h0V30.76h0V30.61h0v0l-0.53.05v0H80.55v0ZM80,31.48v0.05h0l0,0.29h0v0.05l0.22,0v0l0.26,0v0l0.17,0v0l0.51-.05v0h0V31.7h0V31.6h0l0-.2h0V31.36Zm0.44,0.9v0.05l-0.35,0v0h0v0.1h0v0.05h0.13v0l0.47,0v0l0.22,0v0l0.17,0v0.05h0.13V32.6h0.09l0-.24h0V32.3l-0.16,0v0.05l-0.43,0V32.35ZM80.36,34v0H80.28l0,0.25h0.09v0l1.1-.11v0h0l0-.3Zm0.3,0.81v0l-0.29,0,0,0.25,0.21,0v0l1-.1,0-.24h0V34.81H81.48v0l-0.26,0v0H81.14v0Zm-0.21.87,0,0.4L81.42,36v0l0.21,0v0h0.08l0-.4Zm-0.67-8.54v0l-0.18,0,0,0.35,0.45,0v0l0.23,0v0l0.22,0v0l0.31,0,0-.4H80.74v0l-0.63.06v0H80.06v0Zm0.45,6,0,0.24h0V33.5l1.2-.12,0-.3Zm2.31-7.63v0l-0.4,0v0.05l-0.4,0L82,29.05h0l0,0.24h0l0.1,1.13h0l0,0.24h0l0,0.55h0v0.14h0v0.1h0v0.05l1.44-.12v0l0.44,0v0l0.21,0V31.29h0.18v0l0.3,0V31.16h0.09v0h0V31h0.09v0h0V30.94h0v0h0V30.83h0v0h0V30.73h0v0h0V30.62h0.09v0h0v-0.1h0V30.41h0v0h0v0h0V30.26h0v0h0V30.16h0v-0.1h0v0h0V29.9h0V29.8h0V29.7h0V29.5h0V29.3h0L86,29h0l-0.09-1.49H85.89v0h0v-0.2H85.78V27.08h0l0-.25H85.67V26.69h0V26.64h0v0h0V26.54H85.47v-0.1h0v0H85.37v0h0V26.31h0v0H85.23v-0.1h0V26.12H85.13v0H85V26h0v0h0V25.94h0v0H84.8V25.85H84.7v0h0V25.76H84.55v0H84.42V25.68H84.23v0H84.09V25.6H83.92v0H83.73V25.53l-0.41,0v0Zm1.62,6.33v0h0v0.1h0.09V32.1H84.4v0h0.09v0.05h0v0h0v0.05h0.09v0l1.17-.08v-0.1H85.7v0H85.58V32h0v0l-0.26,0V32H85.13v0H85V31.89l-0.21,0v0l-0.26,0v0h0v0Zm2.31,0.78v0l-1.16.08V33h0v0h0v0.06H85.5v0l0.3,0v0.05l0.31,0V33.06l0.38,0v0.05l0.35,0V33h0v-0.1h0v-0.1h0v0H86.7V32.72h0v0H86.48ZM85,25.24v0H84.89v0.05h0v0h0v0H85v0.05h0.13v0h0.05v0.05h0.22V25.51l0.27,0v0.05h0.22V25.47h0v0h0v-0.1H85.84v0h0V25.24l-0.27,0v0ZM85.93,31V31l-0.26,0v0h0v0.06h0v0H85.52v0.1h0.09v0h0.21V31.19H86v0h0.18V31H85.93Zm0.3,2.56v0l-0.31,0v0.15h0v0.1h0.09v0h0V34l1.29-.08v0h0.12v0h0V33.81h0v-0.1h0v-0.1h0v0h0V33.52l-0.86,0v0Zm0.23-7.7V25.9l-0.62,0v0.14h0v0.05h0.05v0H86v0.06h0.18v0l0.26,0v0l0.63,0v-0.1h0V26h0v0h0V25.91H86.88v0H86.7V25.83H86.46Zm-0.18,4.38v0.05h0v0.15h0.14v0l0.52,0v0l0.31,0V30.31h0V30.16Zm0.3,4.25v0.2h0v0h0v0.05l0.89-.05v0l0.55,0V34.58h0v-0.1h0V34.43h0v0H87.73v0h0v0Zm0.34-7.85v0l-0.67,0,0,0.25h0v0h0.05V27l0.35,0v0l0.72,0v0.05h0.22V27h0.09V26.87h0v-0.1h0V26.72h0v0h0V26.62l-0.41,0v0H86.92ZM86.59,29.3v0.05H86.5v0h0v0.05h0v0.1h0v0l0.35,0v0.05l0.88,0V29.54h0V29.3l-0.89,0V29.29H86.59Zm0.24-1.8v0.05l-0.35,0v0H86.44v0.1h0.05v0.05h0v0h0v0.05h0.14v0l0.63,0v0h0.22v0l0.31,0v0h0.05V27.5H87.68V27.46H87.46v0.05l-0.31,0V27.49ZM87,36.19H87v0h0v0.11H87v0h0V36.19Zm-0.22-7.84v0.05H86.57v0h0l0,0.35h0.17V28.75h0V28.8l1.2-.06,0-.4-0.71,0V28.32Zm0.39,6.87v0.15h0v0h0v0.1h0.08v0.06l0.29,0v0l0.8,0v0.05h0.25V35.54h0.09V35.39h0V35.34h0v0h0V35.24h0v0H88.5V35.15H88.29v0.05H88.12V35.17H87.86v0.05l-0.51,0V35.21H87.14ZM88.54,36V36.1l-0.5,0v0.09h0v0.05h0v0h0v0.05h0.09v0l0.54,0v0l0.42,0v0h0.29V36.4h0.09V36.34h0v-0.1h0v0H89.51V36.15H89.43v0H89.34v0l-0.46,0V36Zm1.3,0.74v0l-0.71,0V37h0.07V37h0.25v0H89.8v0h0.25v0.05h0.13v0h0.24v0H90.6V37h0v0h0V36.9H90.51v0H90.38V36.81H90.3v0Zm1.51,3.07h0.08v0h0V40h0v0H91.27v0h0V39.9h0v0Z"/><path class="cls-1" d="M93.47,23.85h0.17V23.9h0.8v0H96v0H96v0c1.44,0,2.15,0,3.59.06V24h0.17v0h0.06v0.06H99.9v0H100v0.11H100v0H100v0.1H99.84v0.06H99.77v0.05H99.55v0h-0.4v0.05H99V24.58l-0.73,0v0H98.24v0H98.13v0.2H98.06v0.81H98l0,1.56H98v0H98l0,1.21h0v0.21h0v0.51h0v0.3H98v0.05H98v0.1h0l0,1H97.86v0.2h0.06v0.21h0v0.45h0v0.3h0v0.05h0V32h0v0.31h0l0,1.66h0v0.61h0l0,1h0v0.35h0v0.46h0v0.1h0.06v0.1H98v0.05H98.6V36.59h0.26v0.05h0.25v0h0.11v0.05h0v0.15h0.06V37H99.26v0.1h0v0.05H99.16v0H98.69V37.2H98.47V37.14l-1.82,0v0H96v0h-0.1v0H95.35v0H94.68v0.05H94.47V37.11H93.22v0H93.06V37H93v0H92.9V36.83H93V36.78h0v0h0.06V36.68h0.1v0h0.37V36.57h0.57v0.05h0.37V36.56h0V36.41h0.06V35.9h0V35.55h0V34.9h0V32.17h0.06V31H94.59V30.4h0V30h0V27.47H94.52V27.07h0.05V26.81H94.52V26.67h0.05V25.81H94.51V25.56h0.05V25.25H94.51v0H94.45V25H94.5V24.54H94.39v0H93.65V24.45H93.19V24.4H93v0H92.85V24.31H92.79v-0.1H92.74v-0.1h0.05V24h0.06V24H93v0h0.45V23.85Zm2,2.16v0.05H95.23v0H95.18v0.1H95.12v0.25h0.06v0.05h0.89V26.46h0.61v-0.1h0.06v-0.3h-1V26H95.47ZM95.3,27.77v0.06H95.19v0.05H95.13V28h0.06v0.05h0v0.05h0.11v0h1.28v0h0V27.88h0V27.83H96.46V27.77H96.18v0.06H95.57V27.77H95.3Zm1.14,3.34v0.05H96.06v0H95.95v0H95.3v0H95.24v0.05h0v0H95.13v0.15h0.06v0.1h0.16v0.06h0.71V31.56h0.06v0.06H96.6V31.56h0V31.41h0.06V31.17H96.65V31.11H96.44Zm-0.87,1.71v0H95.19v0.05H95.14v0.25h0.06v0.1H95.3v0.05H96V33.28h0.54V33.23h0.06v0h0V32.93h0V32.87H96.48v0H95.57ZM95.3,34.69v0.05H95.2v0.1H95.14V35H95.2v0.05h1.48V34.8H96.62V34.75h-1V34.69H95.3Zm-0.16.91V36h1.47V35.9h0.06V35.7H96.61V35.65h0v0H95.88v0H95.51v0H95.14Zm0.15-10.35V25.3H95.18v0.2h0.05v0.06h0.06v0h0.33v0H96.7V25.31h0V25.25H95.52V25.3H95.41V25.25H95.29ZM95.19,27v0.35h1.23v0h0.22V27.22h0V27.07h0v0H96.58V27H96.29V27H96.19V27h-1Zm0.16,1.66v0.05H95.24v0.05h0V29h0V29h1V29h0.06V29h0.22V29h0.06v0h0v-0.2h0V28.69H95.68V28.63H95.35Zm0,1.72V30.4H95.24v0h0v0.21h1.2v0h0.32V30.56H96.65V30.41h0V30.35H95.35Zm-0.15,1.72v0.35H95.3v0.05h1.08V32.42h0.26V32.07H95.19Zm0,1.72v0.41h0v0h1.38V33.89h0V33.83H96.52v0H96.37v0H96v0H95.2Zm0.15-9.34V24.5H95.23v0.1h0.06v0h0.11V24.7h0.68V24.64h0.57V24.5H96.59V24.45H96.37V24.5H96.2V24.45H95.35Zm0.06,5v0.05H95.24v0.2H95.3V29.8h0v0h0.22v0.05h0.28V29.84H96V29.9h0.33V29.84h0.22v0h0.06V29.59H96.51v0H96.12v0H96.06v0H95.74V29.49H95.41Zm0,7v0H95.3v0.11h0.52V36.56h0V36.51H95.72v0H95.41Zm1,0v0H96.14v0.05h0.06v0.05h0.47V36.51H96.6v0H96.4Z"/><path class="cls-1" d="M106.2,24.55l1.19,0.09v0h0.14v0l0.55,0v0h0.05v0l0.4,0v0.05l0.6,0.05v0h0.14v0l0.4,0v0.05h0.15v0h0v0H110v0.05h0.14v0h0.15v0h0.1v0.05h0.14v0h0.15v0l0.19,0v0.05h0.1v0H111v0h0.1v0.05h0.14v0h0.05v0h0.05V26h0v0h0.05v0.05h0.1v0h0v0h0v0.05h0.05v0h0.05v0h0v0.05h0.05v0h0.05v0h0.1v0.05h0V26.7H112v0.05h0.05v0h0v0h0.05v0.05h0.1v0h0v0h0.05v0.1h0v0.1h0.05v0h0v0.05h0.05v0h0.05v0.1h0.05v0h0v0.1h0.05v0h0v0.1h0.05v0h0V28h0v0.09h0v0.1h0v0h0v0.1h0v0.1h0l0,0.14h0v0.1h0v0h0v0.1h0l0,0.14h0l0,0.19h0l-0.05.43h0l0,0.24h0l0,0.14h0l0,0.24h0l0,0.19h0l0,0.24h0l0,0.39h0l-0.12,1h0l0,0.14h0l0,0.24h0l0,0.33h0l0,0.19h0l0,0.2h0l0,0.14h0l0,0.19h0v0.1h0l0,0.14h0l0,0.14h0V34h0v0h0l0,0.14h0v0.1h0v0.1h0v0.09h0v0.1h0v0.1h0v0h0v0.1h0v0h0v0.1h0v0h0l0,0.14h0v0h0v0.1h0v0.05h0v0.09h0v0.05h0v0h0v0h0v0.1h0v0h0v0.05h0v0h0v0h0v0.1h0v0h0v0.05h0v0h0v0h0V36h0v0h0v0h0v0.05h-0.09v0h0v0.05h0v0h0v0h0v0.05h0v0h0v0h0v0.05h-0.08v0H110v0h0v0.05h-0.09v0h-0.09v0h-0.08v0.05h0v0h-0.09v0h0v0.05h-0.09v0h0v0H109.2V37H109.1v0h0v0H108.9v0.05h-0.13v0h-0.14v0.05h-0.13v0h-0.14v0H108.2v0.05H108.1v0l-0.27,0v0h-0.09v0.05h-0.13v0l-0.23,0v0l-0.73-.06v0.05l-0.49,0v0l-0.23,0v0l-0.36,0v0h0v0h-0.18V37.28l-0.23,0v0l-0.54,0v0H104.4V37.07l-0.32,0v0H104v0l-0.27,0V36.88h-0.09v0h-0.09v0h-0.18V36.72h-0.19v0h0V36.61h0v0H103v0h-0.09V36.45h-0.14v0h-0.08v0h0V36.29h-0.09v0h0v0h0V36.14h-0.14v0h-0.13v0h0V36h0v0H102v0h0V35.82h0v0h0v0h0V35.67h0v0h0v-0.1h0v0h0V35.42h0v0h0v0h0v-0.1h0v0h0V35.12h-0.1v0h0v0h0v-0.1h0v-0.1h0v0h0v-0.1h0V34.58h0v-0.1h0v0h0v-0.1h0v-0.1h0v0h0v-0.1h0v0h0V33.89h0V33.84h0V33.74h0v-0.1h0V33.5h0V33.35h0v-0.1h0v0h0V33.06h0V32.76h0v-0.2h0V32.33h0v-0.2h0V31.84h0V31.59h0V31.36h0v-0.2h0V31h0l0-.58h0V30.09h0V29.71h0V29.46h0l0-.58h0v-0.2h0V28.5h0V28.31h0v-0.2h0V28h0V27.83h0V27.68h0v-0.1h0.05V27.5h0.05V27.4h0V27.3h0V27.16h0.05v0h0.05V27h0V26.87h0.05V26.79H101V26.73H101V26.64h0v-0.1h0.05v0h0V26.45h0.05v0h0V26.36h0.05V26.27h0.05V26.21h0.05v0h0v0h0.05V26.08h0v0h0.1v0h0.05V25.94h0.05v0h0.1v0H102V25.8H102v0h0v0h0V25.66h0.05v0h0.05v0h0.05V25.53h0.15v0h0.09v0h0.05V25.4h0.1v0h0V25.3h0.1v0h0v0H103V25.17H103v0h0.1v0h0.15V25h0.09v0h0.1v0h0.1V24.91h0.19v0h0.15v0h0.15V24.8h0.05v0h0.19v0h0.2V24.68h0.14v0h0.2v0l0.4,0V24.58l0.29,0v0l0.6,0v0ZM100.77,29V29h0v0h0v0.14h0v0.29h0.1v0l0.48,0v0l0.53,0,0-.48h-0.2V29L101,29V29h0V29h-0.2Zm0,1v0h0v0.1h0v0h0v0l0.86,0v0h0V30.05h-0.1v0Zm0.6,0.69v0.05l-0.58,0V31h0v0.05h0.15V31h0v0.05h0.28V31.05h0.23v0h0.1v-0.1h0V30.73h0V30.68h-0.28ZM101,28.34v0h0v0.14h0.29v0h0.15v0l0.57,0v0h0V28.38Zm0.26,3.2v0l-0.43,0v0.19h0v0.05H101v0h0.19v0h0.23v0l0.38,0V31.65h0v0h-0.24v0h-0.23Zm-0.32.81v0.24h0v0.1h0.1v0h0.28v0l0.52,0v-0.1h0v0h0v-0.1h0v0h0v0Zm0.43-4.88v0.05h-0.1v0h-0.05v0h0v0.2h0.34v0l0.59,0v0h0v0h0V27.75h0v-0.1h0.05V27.51Zm-0.09,5.71v0.06h0v0.24h0v0h0v0l0.84,0V33.42h0v-0.1h0v0l-0.46,0V33.19h-0.34Zm0.57-6.6v0h0v0.05h-0.05v0h-0.05v0h-0.05v0.06h0V27l0.83,0v0h0.15v0h0v0h0.05V27h0.05V26.86h0v-0.1h0V26.62ZM102.22,34V34.1l-0.65,0v0.09h0v0.05h0v0h0.18v0l0.65,0V34.2h0v0h0v0h0V34h-0.14Zm0,0.73v0h-0.1V35h0v0.1h0v0h0.09v0h0.1v0.05h0.08v0l0.46,0V35.1h0V35h0v0h0V34.89h0v0H102.5v0Zm0.92-9.06v0.06H103v0h-0.1v0H102.8V25.9h-0.05v0H102.7v0h0V26h-0.05v0.09l0.64,0v0h0.09v0h0.05V26h0.05v0h0.05v-0.1h0V25.79h-0.15V25.73H103.1Zm4-.33v0l-0.54,0v0.05l-0.5,0v0h-0.2v0h-0.14v0.06h-0.1v0h-0.1v0.05h-0.1v0h0v0h-0.1v0.05h-0.15v0H105v0h-0.09v0.1h0v0h-0.05V26h-0.05v0h-0.1v0h-0.05v0.05h-0.05v0H104.5v0h0v0.05H104.4v0.09h-0.05v0.1h-0.05v0h0v0.1h-0.05v0.05h-0.05v0h-0.05v0h0v0.1H104v0.1h-0.05v0h-0.05v0.14h0v0.1h-0.05v0.09H103.7v0.05h-0.05v0.09H103.6v0.14h0v0.2h-0.05v0.1h0v0.19h0V28.2h0v0h0v0.24h0v0.19h0v0.1h0V29h0v0.19h0l0,0.82h0v0.24h0l0,0.81h0l0,0.73h0l0,0.53h0v0.14h0v0.15h0v0.19h0v0.15h0v0.14h0v0.14h0v0.1h0v0.14h0v0.1h0v0.19h0V34h0v0.1h0v0.1h0v0h0v0h0v0.1h0v0h0v0.1h0v0.1h0v0.14h0v0.1h0v0h0V35h0v0h0v0.1H104v0h0v0h0v0.05h0.09v0h0v0h0.09v0.05h0v0h0v0h0v0.06h0v0.1h0v0h0.09v0h0.08v0.05h0.14v0h0.09v0h0V36h0.09v0h0.09v0h0.09v0.05h0v0l0.37,0v0h0.14v0.05h0v0l1,0.07v0h0.14V36.43H107v0h0.09v0l0.19,0V36.31h0v0h0.08v0h0.14V36.19h0v0h0.09v0h0V36.06h0.08v0h0v0H108V35.94h0v0h0V35.85h0.08v0h0v-0.1h0v0h0v0h0V35.59h0v0h0v0h0V35.45h0v0h0v-0.1h0v0h0v-0.1h0v0h0V35h0V35h0V34.91h0V34.77h0v0h0V34.68h0V34.6h0V34.55h0v0h0V34.37h0V34.23h0l0-.19h0l0-.2h0v-0.1h0V33.67h0V33.53h0V33.39h0l0-.24h0l0-.19h0l0-.34h0l0.11-1.06h0l0-.19h0l0-.24h0l0-.48h0l0.07-.72h0l0-.49h0l0-.19h0l0-.24h0V28.86h0V28.72h0l0-.19h0l0-.2h0V28.17h0v0h0V28.06h0V28h0V27.91h0v0h-0.05v0h-0.05l0-.34h-0.05v0h0v-0.1h-0.05v0h-0.05v-0.1h-0.05v0h0v0h-0.05V27h-0.05v0h-0.05v-0.1h0v0h-0.05V26.74h-0.05v0H109.3v0h-0.1V26.58h-0.05v0h-0.05v0H109V26.41H109v0h-0.05v0h0V26.26h-0.1v0h-0.05v0h-0.09V26.09h-0.1v0h0v0h-0.05V25.93h-0.05V25.84h-0.05V25.78h-0.1v0l-0.29,0V25.65h-0.14v0h-0.1v0h-0.15V25.47l-0.29,0v0Zm-4.15,10.34v0.05h-0.18v0h0v0h0v0.06h0v0h0v0h0.18v0.05H103v0h0.08v0h0v0.05h0.14v0h0.09v0l0.27,0V36.2h-0.09v0h0v0h0V36h0V36h0V35.9h0v0h-0.09v0h0V35.74Zm1.29-10.53v0h-0.05v0.1l0.3,0v0h0.05v-0.1Zm0.5-.11v0.14h0.2v0h0V25.14h0v0Zm0.45,0v0h0v0h0.15v0h0.05v0h-0.15Zm2,6,0.28,0v0h0v0h0v0.05h0v0h0v0.1h0v0.14h0v0.14h0v0.14h0v0.1h0v0h0v0h0v0.05h0v0h-0.14v0h-0.14v0h0V32h0v0h0V31.78h0V31.63h0V31.44h0V31.29h0l0-.19h0v0Zm2-5.7v0h-0.14v0.14h0.05v0h0v0.05h0.05v0h0.1v0h0.15v0l0.19,0v0l0.3,0v0h0V25.63h-0.09v0l-0.2,0V25.5h-0.14v0h-0.15v0ZM108.71,36.2v0h-0.09v0h0v0.05h0v0.09h0v0.1l0.18,0v0l0.19,0V36.45l0.23,0v0h0v0h0V36.24Zm1.18-10v0.05h-0.05v0h-0.05v0.1h0.05v0.09h0.05v0.05h0v0h0.05v0l0.35,0v0h0v0l0.3,0v0l0.19,0v-0.1h-0.05v0h-0.05v0h0V26.43h-0.05v0h-0.1v0h-0.1V26.26Zm-0.37,9.19v0.05h-0.13v0h0v0h0v0.05h0v0.14h0.09v0h0v0l0.23,0v0l0.27,0v0h0V35.73h0v0h0v-0.1h0V35.51l-0.19,0V35.43Zm0.81-8.27v0h-0.05l0,0.19h0.05v0.1h0.05v0.1h0.1v0h0.1v0l0.34,0v0.05l0.24,0V27.73l0.15,0v0h0.05v0h0.1v0h0.09v0h0.05V27.63h-0.05V27.54h-0.05V27.48h0V27.39h0V27.33h-0.05v0l-0.73-.07v0Zm-0.41,7.54v0h-0.09v0.1h0v0.09h0v0.05L110.5,35V35h0v0h0l0-.19Zm0.76-6.54v0.05h0v0.14h0v0.14h0.1v0l0.24,0V28.6l0.35,0V28.58l0.48,0.05,0-.19h0v-0.1h0v0h-0.1V28.23Zm-0.34,5.76v0h-0.14l0,0.29,0.19,0v0.05l0.55,0.06V34.27h0v0h0v0h0V34.15h0l0-.14-0.47,0v0ZM110.89,29V29h0v0.14h0v0l0.24,0v0l0.24,0v0l0.53,0.06v0h0l0-.14-0.48-.05V29ZM110.52,33v0h0v0.1h0l0,0.19h0v0.1l0.18,0V33.42l0.23,0v0.05l0.47,0.05V33.49h0v0h0v-0.1h0l0-.14h0v0L111,33.12v0Zm0.35-3.37V29.8h0l0,0.24h0v0.1h0v0L112,30.31v0h0l0-.24h0l0-.14h0v0h0V29.77Zm0,1,0,0.19h0v0l0.19,0V31l0.85,0.09V31h0l0-.19h0v0Zm-0.15,1.48,0,0.39h0v0l0.7,0.08v0.05l0.19,0V32.7h0v0h0l0-.33h0V32.27Zm0.17-.71,0,0.24h0v0l0.94,0.1v0h0l0-.2h0v0Z"/><path class="cls-1" d="M128.73,27.65a0.39,0.39,0,0,1,.24.45,5.53,5.53,0,0,0-2.75,2.4c-0.07.18-.3,1-0.6,2.42l-0.39,1.9a5.09,5.09,0,0,1-.2.66,0.42,0.42,0,0,1,0,.25,6.17,6.17,0,0,1-1.41,2.49,3.31,3.31,0,0,1-.89.57,5.17,5.17,0,0,1-2.4.45l-0.15,0c-0.23,0-.72-0.11-1.46-0.2v0l-2.27-.85a3.84,3.84,0,0,1-1.92-2.39,2.64,2.64,0,0,1-.18-1.45,13.43,13.43,0,0,0,.31-1.53l0-.24a1.24,1.24,0,0,0,0-.39,1.33,1.33,0,0,0,.11-0.39l0-.29a6.8,6.8,0,0,0,.06-0.88l0.09-.23V29.94l0.08-.18a0.29,0.29,0,0,0,0-.15q0.14-.63.19-1l0-.33a0.05,0.05,0,0,0-.05-0.06s0,0,.07,0c0-.57.06-0.91,0.07-1q0.2-1.07.21-1.16l-0.1-.06-1-.12-0.17.08H114.2a1.55,1.55,0,0,1-.39-0.44,0.51,0.51,0,0,1,.58-0.18c0.18,0,.35.09,0.48,0.11h0.34a2.32,2.32,0,0,0,.42.15,1.35,1.35,0,0,0,.61,0l0.11,0.06,1.53,0.22a0,0,0,0,0,.06,0l0.1,0.06,1.31,0.15c1,0.16,1.5.37,1.46,0.63a1.51,1.51,0,0,1-.73,0l-1.14-.18a1,1,0,0,0-.27.7c0,0.07,0,.1,0,0.11l-0.12.47-0.67,4.39a3.66,3.66,0,0,1-.15.62,1.82,1.82,0,0,1,0,.54l-0.14.92a0,0,0,0,0,0,.05l-0.06.09,0,0.29a0.42,0.42,0,0,0,0,.2,0.37,0.37,0,0,0-.08.18,2.42,2.42,0,0,0,.89,2,5.12,5.12,0,0,0,2,.88,0.37,0.37,0,0,0,.16,0l0.3,0.1c0.88,0.09,1.34.06,1.37-.1a0.37,0.37,0,0,0,.19.09,3.27,3.27,0,0,0,1.29-1.24,2.94,2.94,0,0,0,.31-0.79l0-.1a1.43,1.43,0,0,0,.11-0.33,0,0,0,0,0,0-.06l0.1-.23,0.06-.28q0.16-.78.36-1.51l0-.45q0.21-.72.31-1.27,0.07-.35.33-2.22a4,4,0,0,0-1.56-2,1.28,1.28,0,0,1-.62-0.56l0-.15a0.84,0.84,0,0,0,.51,0l0.36,0.11L125.09,27a2.22,2.22,0,0,0,.44,0l1.39,0.37A11.79,11.79,0,0,0,128.73,27.65Zm-13.85,6.75a0.24,0.24,0,0,1,.2.12l0.62,0,0.62,0.09,0-.19a0.23,0.23,0,0,0-.13-0.17l-0.93-.13A0.3,0.3,0,0,0,114.87,34.41Zm1.81-7.72-0.53-.07a0.09,0.09,0,0,0-.12.07l0,0.2a0.66,0.66,0,0,1,.26.14c0.47,0,.85.06,1.14,0.11,0,0,0-.12.09-0.28a0.18,0.18,0,0,1-.15-0.12Zm-0.77.83v0l0,0.25,0.43,0.06c0.19,0,.5.09,0.91,0.18l0.06-.09a0.29,0.29,0,0,0-.27-0.39l-0.54-.08a0.47,0.47,0,0,0-.23,0,0.4,0.4,0,0,0-.2-0.08H116A0.1,0.1,0,0,0,115.91,27.51Zm-0.12.87,0,0.24L116,28.71l0.64,0L117,28.84a0.26,0.26,0,0,0,.23-0.11l0-.24-0.11,0q-0.21,0-.22,0l-0.37-.11-0.64-.09A0.1,0.1,0,0,0,115.79,28.38Zm-0.1.77,0,0.24a2.7,2.7,0,0,0,1.36.34l0.06-.08,0-.24a0.29,0.29,0,0,0-.29-0.2l-1-.14A0.1,0.1,0,0,0,115.69,29.15Zm-0.12.87,0,0.24,0.73,0.16a0.85,0.85,0,0,0,.71-0.06l0-.19-0.89-.13Zm-0.1.77v0.1l0,0.25,1.21,0.17a0.22,0.22,0,0,0,.18-0.12v-0.1a0.09,0.09,0,0,0-.09-0.11l-0.16,0a6.72,6.72,0,0,0-.8-0.06A1.44,1.44,0,0,0,115.47,30.79ZM115.31,32L115.57,32l0.83,0.12h0.27l0-.24a0.09,0.09,0,0,0-.09-0.11L116,31.71a3.18,3.18,0,0,1-.47-0.11Q115.36,31.6,115.31,32Zm-0.08.63v0.35l1.15,0.16a0.28,0.28,0,0,0,.2-0.27l0-.14-1.24-.17A0.1,0.1,0,0,0,115.23,32.59Zm-0.06.83a0.39,0.39,0,0,1-.07.14l0.14,0.11,1.08,0.15,0-.23-0.67-.09a0,0,0,0,0-.05,0l-0.1-.06Zm-0.24,1.74v0.09a0.1,0.1,0,0,0,.09.11c0.45,0,.8.07,1.08,0.11l0.21,0,0-.14a0.23,0.23,0,0,0-.14-0.18l-0.41-.06a0,0,0,0,0-.06,0l-0.1-.07L115.25,35C115,35,114.94,35.08,114.93,35.15ZM115,36v0a0.33,0.33,0,0,0,.17.22l0.4,0.06q0.27,0,.86.17l0.12-.13a0.29,0.29,0,0,0-.22-0.28c-0.17,0-.44-0.11-0.76-0.15A0.62,0.62,0,0,0,115,36Zm0.64,1v0a0.64,0.64,0,0,0,.52.32l1.31,0.2a0.09,0.09,0,0,0,.12-0.08,1.64,1.64,0,0,1-.41-0.36l-1.41-.21A0.1,0.1,0,0,0,115.67,36.93Zm1.7,1c0,0.2.5,0.41,1.58,0.65v0c0.26,0,.82,0,1.69.05l0.18-.13-0.9-.16a3.71,3.71,0,0,0-.56,0,0.85,0.85,0,0,0-.38-0.17l-0.25,0a0,0,0,0,0-.05,0,0.89,0.89,0,0,0-.34-0.15Zm7.46-10.52v0a0.11,0.11,0,0,0,.09.12H125a0.29,0.29,0,0,0,.35-0.08Zm0.6,0.12v0l0.36,0.13h0.06a0.09,0.09,0,0,0,.13-0.08Zm-0.05.53v0.05l0.44,0.34-0.07.33,0.16,0a0.57,0.57,0,0,1,.24-0.39l0-.14a0.09,0.09,0,0,0-.09-0.12l-0.39,0a0.09,0.09,0,0,0-.08-0.12l-0.11,0A0.11,0.11,0,0,0,125.37,28.1Zm1.07-.33,0,0.1,0.32,0.07,0-.1Z"/><path class="cls-1" d="M139.43,29.85a0.4,0.4,0,0,1,.19.3,0.94,0.94,0,0,1-.09.12,0.22,0.22,0,0,0,0,.24q-0.23.61-.32,0.9l-0.53,1.78a0.45,0.45,0,0,1-.65.31,8.8,8.8,0,0,1-.39-1.16A2.36,2.36,0,0,0,136.46,31c0-.12-0.62-0.46-2-1a2,2,0,0,0-.8-0.11l-0.09-.08h0c-1.92-.16-3,0.25-3.2,1.18a2,2,0,0,0,1.19,2.45,10.62,10.62,0,0,0,1.67.67,1.84,1.84,0,0,0,.58.06l0.09,0.07c0.09,0,.63.1,1.61,0.24a4.28,4.28,0,0,0,.78.31l0.37,0.06a3.46,3.46,0,0,1,1.79,1.51,3.27,3.27,0,0,1,.22,2.31,5,5,0,0,1-4.38,3.92,5.15,5.15,0,0,1-1.71-.13l-0.66-.18L131,41.94V42a4.08,4.08,0,0,0-.86-0.42v0a9.42,9.42,0,0,1-2.49-1.53c-0.2.7-.4,1-0.58,1l-0.15,0a0.37,0.37,0,0,1-.13-0.33q0.41-1.35.78-2.95l0.22-1a0.46,0.46,0,0,1,.59-0.31c0.57,2.06,1.33,3.41,2.34,4a4.59,4.59,0,0,0,2.06,1,3,3,0,0,0,2.28,0,2.76,2.76,0,0,0,1.55-1.72,1.77,1.77,0,0,0-1.22-2c-0.21-.08-0.55-0.21-1-0.33l-0.2-.05-0.18.05h0l-0.12-.14-0.57-.05c-0.5-.13-1.2-0.21-1.74-0.41-0.2-.07-0.41-0.2-0.58-0.24l-0.49-.12a5,5,0,0,1-2.37-2.08,3.09,3.09,0,0,1-.21-2.14,5.71,5.71,0,0,1,1-1.74,5.07,5.07,0,0,1,2-1.25,8.86,8.86,0,0,1,2.7-.17,5.6,5.6,0,0,0,.82.06,0.5,0.5,0,0,1,.15.09l0.86,0.12a1.6,1.6,0,0,0,.35.15,0.45,0.45,0,0,0,.17,0,15.51,15.51,0,0,1,2.18,1l0.36,0.3,0.06,0a0.09,0.09,0,0,0,.13-0.07l0.12-.41A0.67,0.67,0,0,1,139.43,29.85ZM129,31.47l-0.1.23-0.21.93c-0.11.46,0,.73,0.29,0.8l0.45,0.11v0a2.59,2.59,0,0,1-.41-1.71,0.9,0.9,0,0,1,0-.29h0Zm0,2.6L129,34l-0.1,0v0c0,0.1.12,0.18,0.37,0.23l1.11,0.26a4.72,4.72,0,0,1,.54.18,0.42,0.42,0,0,1,.16,0v0a2.24,2.24,0,0,0-1.21-.53ZM128,38.56a1.64,1.64,0,0,1-.19.35,0.34,0.34,0,0,1,0,.15l0.25,0.06a0.08,0.08,0,0,0,.11-0.07,1.36,1.36,0,0,1-.1-0.47Zm0.1,1.1v0a0.85,0.85,0,0,0,.72.42l0-.14a0.5,0.5,0,0,0-.2-0.24h0Zm1.69-4.78-0.07.08V35a1,1,0,0,0,.38.44l0.61,0.09,0.78,0.25,0.56,0.09a4,4,0,0,0,.54.19,0.41,0.41,0,0,0,.17,0L133,36.18l0.26,0.07a2.62,2.62,0,0,0,.46.07,0.39,0.39,0,0,0,.18.11,0.36,0.36,0,0,0,.17,0l0.28,0.13,0.1,0a0.39,0.39,0,0,0,.21,0,0.38,0.38,0,0,0,.18.11l0.15,0a0,0,0,0,0,.06,0l0.09,0.08L136,37a0.39,0.39,0,0,0,.21,0,2.29,2.29,0,0,0,.82.34c0.15,0,.35.05,0.5,0.1l0-.1a0.35,0.35,0,0,0-.18-0.45c-0.06,0-.29,0-0.57-0.07a9.28,9.28,0,0,1-2.37-.76,5.31,5.31,0,0,1-.66-0.13l-2.16-.56a3.19,3.19,0,0,1-.48-0.17,2.21,2.21,0,0,1-.47-0.07l-0.4-.1Zm-0.56,5.55,0,0.09a0.38,0.38,0,0,0,.36.24l0-.1a0.29,0.29,0,0,0-.26-0.2Zm6.15-4.64a4.56,4.56,0,0,0-.54-0.2l-0.07.07,0.29,0.13h0.16l0.28,0.13,0.1,0a0.28,0.28,0,0,0,.33,0,0.36,0.36,0,0,1-.13-0.09A2.13,2.13,0,0,1,135.4,35.78Zm1.07-5.44,0,0.1,0.21,0.06,0.28,0a0.09,0.09,0,0,0-.08-0.12Zm-0.35,5.59a0.22,0.22,0,0,0,.12.17l0.64,0.19,0-.09a3.41,3.41,0,0,0-.52-0.25Zm1.62-4.74v0a0.73,0.73,0,0,0,.16.44l0.1,0v0c0.07-.23,0-0.36-0.05-0.41Zm-1.16,6.5-0.23-.11v0a2.52,2.52,0,0,0,1.31.79l0.08-.08-0.1-.43-0.3,0L137,37.74A1.06,1.06,0,0,1,136.58,37.7Zm0.66,1v0a0.77,0.77,0,0,0,.12.63l0.08-.07,0.12-.42a0.09,0.09,0,0,0-.08-0.12Z"/><path class="cls-1" d="M55.45,55.95a5.38,5.38,0,0,0-1.56-.72A6.14,6.14,0,0,0,52.28,55a15.74,15.74,0,0,0-2.35.24l-2.79.45,1.84,11,2.75-.45a11.77,11.77,0,0,0,2.48-.6,6.24,6.24,0,0,0,1.41-.77,5.35,5.35,0,0,0,1-1,5.55,5.55,0,0,0,1.07-4.25A5,5,0,0,0,55.45,55.95Z"/><path class="cls-1" d="M143,57.39a2.21,2.21,0,0,0-.19-1.33,2.09,2.09,0,0,0-1-1,8.2,8.2,0,0,0-2.32-.58l-0.67-.1-0.66,4.69L139,59.23a6.64,6.64,0,0,0,2.34.06,2.17,2.17,0,0,0,1.1-.68A2.37,2.37,0,0,0,143,57.39Z"/><path class="cls-1" d="M181.21,70.12l-23.67-4.29V51.23s-17.64-6.58-60.61-6.58-60.5,6.58-60.5,6.58V66.14l-22,4,9.72,5.4L17.2,82.75l27-4.88-0.91-4.13c7.61-1.87,23.11-4.11,53.71-4.11,32.86,0,48.32,2.59,55.28,4.52l-0.82,3.72,27,4.88-6.92-7.22ZM59.73,62.38A7.43,7.43,0,0,1,58.37,65a7.55,7.55,0,0,1-2.33,2,8,8,0,0,1-1.49.67,23.16,23.16,0,0,1-2.68.52q-2.36.37-4.72,0.78L44.58,54.16q2.64-.46,5.29-0.88a11.43,11.43,0,0,1,5.2.16,7,7,0,0,1,3.31,2.28A7.36,7.36,0,0,1,59.73,62.38Zm3.84,4.16L61.85,51.66q4.47-.52,9-0.9L71,52.66q-3.33.29-6.65,0.65l0.49,4.55q3.16-.34,6.33-0.62l0.17,1.92q-3.15.27-6.29,0.61l0.5,4.63q3.3-.36,6.61-0.64l0.16,1.9Q67.92,66,63.57,66.54ZM81,64.12A4.53,4.53,0,0,1,78,65.43a6.83,6.83,0,0,1-4.16-1.07l-0.22-2.72a5.24,5.24,0,0,0,4.24,1.9,2.6,2.6,0,0,0,1.66-.67,1.76,1.76,0,0,0,.6-1.44C80,60.53,79.31,59.7,77.9,59l-1.74-.88a7.81,7.81,0,0,1-2.39-1.68,3.42,3.42,0,0,1-.84-2,3.58,3.58,0,0,1,1.06-3,5,5,0,0,1,3.29-1.34,6.5,6.5,0,0,1,3.7.84l0.13,2.43A5.24,5.24,0,0,0,77.37,52a3.11,3.11,0,0,0-1.78.61A1.46,1.46,0,0,0,75,53.91a1.88,1.88,0,0,0,.61,1.22,6.63,6.63,0,0,0,1.74,1.12l1.75,0.86c2,1,3,2.33,3,4A3.84,3.84,0,0,1,81,64.12Zm3.66,0.78-0.63-15,2.27-.09,0.51,15Zm18.72-1.21a14.56,14.56,0,0,1-5.55,1.13,8.49,8.49,0,0,1-6-2.14,7.59,7.59,0,0,1-.1-11,8.44,8.44,0,0,1,6.08-2.27,11.07,11.07,0,0,1,2.54.29,20.23,20.23,0,0,1,3,1.06l0,2.19a11,11,0,0,0-5.56-1.63,6,6,0,0,0-4.34,1.69,5.41,5.41,0,0,0-1.69,4.14,5.54,5.54,0,0,0,1.78,4.15A6.25,6.25,0,0,0,98,63a10.72,10.72,0,0,0,3.12-.56l0.21-.06,0-3.12-3,0V57.26q2.59,0,5.19.07Zm17.13,1.94-1.85-.15q-4.59-6.14-9.58-12.14l-0.48,11.54-2-.08,0.51-15L109,49.89q5.11,6,9.8,12.24l0.88-11.62,2.15,0.17Zm13.33-11.78q-3.32-.41-6.64-0.75l-0.46,4.55q3.16,0.32,6.32.71l-0.24,1.91q-3.14-.39-6.28-0.71l-0.47,4.64q3.3,0.34,6.6.75l-0.24,1.9q-4.35-.54-8.71-1L125.18,51q4.48,0.42,8.95,1Zm9.91,14.66-0.49-1.08-0.1-.2-0.32-.65-0.49-1.19-0.54-1.27a11.24,11.24,0,0,0-1-1.64,4.65,4.65,0,0,0-.9-0.93,3.54,3.54,0,0,0-1.49-.46L137.88,61,137,67.47l-2.14-.29,2-14.87,3.94,0.55a5.85,5.85,0,0,1,3.61,1.69,3.67,3.67,0,0,1,.9,3.24,3.82,3.82,0,0,1-1,2.13A4.09,4.09,0,0,1,142.07,61a6.6,6.6,0,0,1,1.23,1.5,23.91,23.91,0,0,1,1.49,3.13q0.58,1.39.94,2.11l0.61,1.2Z"/><path class="cls-1" d="M57.42,82.17l-0.35.27a2.49,2.49,0,0,1-.83.35,1,1,0,0,1-.31.07,0.14,0.14,0,0,1-.13-0.06,0.6,0.6,0,0,1-.22,0,0.73,0.73,0,0,1-.73-0.74c0-.17.13-0.5,0.13-0.73a4.27,4.27,0,0,1,.24-0.55c0-.46.73-1,0.79-1.27a0.52,0.52,0,0,0,.27-0.25A2.59,2.59,0,0,1,57,79.06a0.74,0.74,0,0,1,.74.7,0.91,0.91,0,0,1-.55.73,1.11,1.11,0,0,1-.5.29L56,81.23a1.39,1.39,0,0,0-.18.8c0,0.2,0,.38.17,0.38H56l0.08,0A1.46,1.46,0,0,0,57.06,82a6.07,6.07,0,0,0,.53-0.41,8.78,8.78,0,0,0,1-1c0.39-.25.66-0.71,0.94-0.87a0.37,0.37,0,0,1,.14.18,0.45,0.45,0,0,1-.08.08,3.29,3.29,0,0,1-.92,1l-0.85.87A1.79,1.79,0,0,1,57.42,82.17Zm-1-1.9a1.7,1.7,0,0,0-.29.55,2.34,2.34,0,0,0,1.18-.7,0.64,0.64,0,0,0,.21-0.41,0.26,0.26,0,0,0-.22-0.31,1,1,0,0,0-.34.17,0.09,0.09,0,0,1-.07,0A2.09,2.09,0,0,0,56.38,80.27Z"/><path class="cls-1" d="M63.23,80.53c0.39-.25.71-0.69,1-0.84a0.38,0.38,0,0,1,.14.18,0.49,0.49,0,0,1-.08.08,3.23,3.23,0,0,1-1,1c-0.32.32-.52,0.57-0.91,1a2.6,2.6,0,0,1-.34.36,0.15,0.15,0,0,0-.07,0v0a1.13,1.13,0,0,1-.74.35,0.79,0.79,0,0,1-.88-0.36,0,0,0,0,1,0,0c-0.11-.06-0.07-0.21-0.17-0.25s0-.06,0-0.06a3.51,3.51,0,0,1-.22-0.74,2.49,2.49,0,0,0-.67.7,2,2,0,0,0-.62.74,0.19,0.19,0,0,0,.07.13,1,1,0,0,1-.57.41,0.16,0.16,0,0,1,0-.08,0.34,0.34,0,0,1-.1.06,0.2,0.2,0,0,0,0-.08s0,0,0,0a0.07,0.07,0,0,1,0,0,1.51,1.51,0,0,0,.27-0.35,1.77,1.77,0,0,1,.28-0.28,4.79,4.79,0,0,1,.69-0.85,1.59,1.59,0,0,0,.41-0.41A0.78,0.78,0,0,0,60,80.94a1.15,1.15,0,0,1-.13-0.53,0.48,0.48,0,0,1,0-.14,0.08,0.08,0,0,0-.06-0.06,0.4,0.4,0,0,0,0-.14c0-.14-0.07-0.31-0.07-0.46s0-.07,0-0.11l-0.07-.24A0.59,0.59,0,0,1,60,79h0.11a0.37,0.37,0,0,1,.27,0,0.06,0.06,0,0,0,0,0,0.52,0.52,0,0,1,.2.2,0.07,0.07,0,0,0,0,.06l0.07,0.27a0.05,0.05,0,0,1,0,0,0.51,0.51,0,0,0,.11.17,0.28,0.28,0,0,0,0,.1,2.51,2.51,0,0,0,.08.24h0a0.62,0.62,0,0,1,.07.17,0.09,0.09,0,0,1,0,.06,10.43,10.43,0,0,1,.83-0.88,1.53,1.53,0,0,1,.56-0.64c0.06,0,0-.1.13-0.1a0.17,0.17,0,0,1,.17.1,0,0,0,0,0,0,0,0.45,0.45,0,0,1-.21.24,0.07,0.07,0,0,0-.06,0,2,2,0,0,1-.32.39s0,0,0,0a1,1,0,0,1-.34.48,3.19,3.19,0,0,0-.21.25,3.34,3.34,0,0,0-.32.32,1.17,1.17,0,0,0-.1.22A1.44,1.44,0,0,1,61,81a0.3,0.3,0,0,1,0,.06,1.37,1.37,0,0,0,.57,1,1,1,0,0,0,.24,0,2.4,2.4,0,0,0,.49-0.39A13.83,13.83,0,0,0,63.23,80.53Z"/><path class="cls-1" d="M67.35,82.46a2,2,0,0,1-.43.11,7.92,7.92,0,0,1-.85-0.24,0.85,0.85,0,0,1-.58.36,0.53,0.53,0,0,1-.39-0.6A0.07,0.07,0,0,0,65.15,82l0-.13a1.14,1.14,0,0,1,.78-0.48,0.67,0.67,0,0,0,.29.34,0.71,0.71,0,0,1,.14-0.06,2.38,2.38,0,0,0,.46-0.52,1.82,1.82,0,0,0,.35-0.91,1.92,1.92,0,0,0-.18-1,1.73,1.73,0,0,0-1.22,1,3.32,3.32,0,0,0-.83,1.16,5.64,5.64,0,0,1-.57.74h0a0.17,0.17,0,0,1,.07.07,0.15,0.15,0,0,0-.07.08,0.08,0.08,0,0,1-.07,0,0.86,0.86,0,0,0-.17.43,0.1,0.1,0,0,1,0,0v0.11a0.42,0.42,0,0,0-.07.08A0.15,0.15,0,0,0,64,83a0.25,0.25,0,0,0-.07.06,0.1,0.1,0,0,1,0,0,1.16,1.16,0,0,1-.1.18,0.19,0.19,0,0,1,0,.08,1.87,1.87,0,0,1-.15.41,1,1,0,0,1-.2.53,0.08,0.08,0,0,1,0,.06,0.39,0.39,0,0,1-.13.25,0.16,0.16,0,0,1,0,.07,0.08,0.08,0,0,1,0,.08s0,0,0,0,0,0.24-.15.25a0.11,0.11,0,0,1,0,.06c0,0.07,0,.14-0.07.14a0.17,0.17,0,0,0,0,.08,1.15,1.15,0,0,0-.17.31,2.32,2.32,0,0,0-.1.48l-0.07,0a0.17,0.17,0,0,1,0,.08l-0.06.27a0.1,0.1,0,0,0-.06,0c-0.06.31-.18,0.46-0.22,0.7-0.29.2-.34,0.64-0.64,0.83a1.84,1.84,0,0,1-.48.42c-0.55,0-.63-0.13-0.63-0.34V87.79A1.72,1.72,0,0,1,61.14,87l0-.07a4,4,0,0,1,.67-1.33,1.78,1.78,0,0,1,.55-0.9h0l0.17-.31,0-.06a0.5,0.5,0,0,0,.18-0.36,0.33,0.33,0,0,1,0-.06,0.55,0.55,0,0,0,.08-0.22,2,2,0,0,0,.18-0.45,0.06,0.06,0,0,1,0,0s0.08-.24.14-0.35,0-.07,0-0.11a1,1,0,0,1,.15-0.29s0,0,0,0a2.5,2.5,0,0,1,.32-0.91,0.48,0.48,0,0,1,0-.08,0.12,0.12,0,0,1,0-.08,0.29,0.29,0,0,0,0-.07,2.2,2.2,0,0,0,.18-0.63V80.53a2.33,2.33,0,0,0,.18-0.69,7.28,7.28,0,0,1,.38-1.18,0.07,0.07,0,0,1,0,0l0.06-.15a0.05,0.05,0,0,0,0,0,0.42,0.42,0,0,1,.39-0.17,0.86,0.86,0,0,1,.64.24,2.46,2.46,0,0,0-.31.71,0.1,0.1,0,0,1,0,.06s0,0-.06,0,0,0.06,0,.06a0,0,0,0,1,0,0h0l0,0.13a0.1,0.1,0,0,1-.06,0,0.16,0.16,0,0,1,0,0,0.83,0.83,0,0,1-.18.49,0.45,0.45,0,0,1-.13.35,0.33,0.33,0,0,0,0,.06,0.08,0.08,0,0,1,0,0,1.15,1.15,0,0,1-.13.63,1.66,1.66,0,0,0,0,.2H64.31a0.53,0.53,0,0,0,0,.11,0.24,0.24,0,0,0-.11.13,0.05,0.05,0,0,0,0,0,2.9,2.9,0,0,0-.07.39,0.88,0.88,0,0,0,.25-0.35,0.33,0.33,0,0,1,.08-0.13,0.1,0.1,0,0,0,0-.06,0.23,0.23,0,0,0,.06,0s0.35-.56.41-0.63a0.35,0.35,0,0,0,.11-0.2c0.28-.06.22-0.53,0.5-0.56a1.72,1.72,0,0,1,.2-0.39,1.31,1.31,0,0,0,.39-0.29V79.26A2.73,2.73,0,0,1,67,79c0.41,0,.45.63,0.45,0.9a2.29,2.29,0,0,1-.66,1.71c0,0.2-.29.2-0.31,0.39a0.75,0.75,0,0,0,.57.21c0.07,0,.22-0.17.22-0.15,0.25,0,.38-0.31.67-0.35a7.19,7.19,0,0,0,1-1.12c0.43-.25.67-0.66,1-0.81a0.39,0.39,0,0,1,.17.18l-0.1.08A4.2,4.2,0,0,1,69,81.09c-0.5.5-.39,0.48-0.78,0.83A3.42,3.42,0,0,1,67.35,82.46Zm-5.73,3.89a3.16,3.16,0,0,0-.22.52,1.26,1.26,0,0,0-.17.42,0.18,0.18,0,0,0,0,.08,0.54,0.54,0,0,0-.07.24,0.16,0.16,0,0,0,0,.11,0.42,0.42,0,0,1,.18-0.17s0,0,0,0a1.17,1.17,0,0,1,.22-0.38,0.33,0.33,0,0,0,0-.07,2.16,2.16,0,0,0,.35-0.74,0.08,0.08,0,0,0,0,0A0.53,0.53,0,0,0,62,86a0.14,0.14,0,0,0,0-.07c0.13-.11.1-0.32,0.21-0.42a0.07,0.07,0,0,1,0,0,4.26,4.26,0,0,0,.27-0.67s-0.67,1.16-.64,1.13a0.29,0.29,0,0,1,0,.06,0.53,0.53,0,0,0-.17.36S61.62,86.33,61.62,86.36Zm3.94-4a0.39,0.39,0,0,0,.34-0.36,0.22,0.22,0,0,0-.11-0.2,0.34,0.34,0,0,0-.34.38,0.34,0.34,0,0,0,0,.17h0.07Z"/><path class="cls-1" d="M69.91,82.83h0a1.13,1.13,0,0,0-.15.06c-0.13-.06-0.46,0-0.46-0.18a0.67,0.67,0,0,1,0-.17s-0.06,0-.07,0a0.05,0.05,0,0,0,0,0,0.36,0.36,0,0,0-.11-0.14,0.61,0.61,0,0,0,.07-0.17,0.06,0.06,0,0,0,0,0,0.11,0.11,0,0,0,.06-0.1,0.3,0.3,0,0,0-.06-0.14,6.34,6.34,0,0,0,.14-1.48,3.43,3.43,0,0,0,.13-0.8s0,0,0,0a2,2,0,0,0,.2-0.66,14,14,0,0,1,.69-2.34,17.26,17.26,0,0,1,.8-2.65,1.22,1.22,0,0,1,1.29-1c0.6,0,.62.27,0.62,0.43a4.74,4.74,0,0,1-.38,1.48A8.51,8.51,0,0,1,72,76.12a5.47,5.47,0,0,1-.55.67,1.2,1.2,0,0,1-.42.57,7.45,7.45,0,0,0-.52,1.83,5.54,5.54,0,0,1-.21.7c0,0.62-.14,1.2-0.14,1.74a0.6,0.6,0,0,0,.18.56A0.43,0.43,0,0,1,70.64,82a5.6,5.6,0,0,0,1.44-1.43c0.39-.25.71-0.69,1-0.84a0.37,0.37,0,0,1,.14.18,0.49,0.49,0,0,1-.08.08,3.23,3.23,0,0,1-1,1c-0.29.29-.5,0.53-0.83,0.87A3.53,3.53,0,0,1,69.91,82.83ZM72,74.13c0,0.08-.15.15-0.15,0.25a0.05,0.05,0,0,0,0,0c-0.14.21-.28,0.84-0.32,0.84a7.41,7.41,0,0,0-.28.84,4.74,4.74,0,0,1-.15.64c0.14-.11.63-0.94,0.7-0.94a0.4,0.4,0,0,0,.1-0.24,7.08,7.08,0,0,0,.32-0.76,3.31,3.31,0,0,0,.38-1.32c0-.08,0-0.21-0.07-0.21l0,0,0,0,0,0,0,0a1.48,1.48,0,0,0-.29.45A0.85,0.85,0,0,0,72,74.13Z"/><path class="cls-1" d="M76.1,80.84l-0.32.1-0.28,0V80.91L75.42,81,75.12,81H75.06a3,3,0,0,1-2,1.68,0.68,0.68,0,0,1-.7-0.53c0-.08-0.06,0-0.06-0.07l0-.07s0-.2-0.07-0.25a2,2,0,0,1,.11-0.57c0-.18,0-0.29,0-0.38a0.92,0.92,0,0,1,.15-0.49,1.7,1.7,0,0,1,.7-1,1.51,1.51,0,0,1,.8-0.28l0.32,0a0.13,0.13,0,0,1,.11,0,0.19,0.19,0,0,1,.17.06h0.13c0.49,0,.6.59,0.6,1.08a2.56,2.56,0,0,1-.17.59l0.11,0a2.12,2.12,0,0,0,.77-0.21c0.39-.25.71-0.69,1-0.84a0.38,0.38,0,0,1,.14.18,4.52,4.52,0,0,1-.79.84Zm-2.84.22,0,0.07,0,0.06a0.54,0.54,0,0,0,0,.08,1.35,1.35,0,0,1-.06.22,2.76,2.76,0,0,0,.2.78,6.75,6.75,0,0,0,.67-0.35,2.1,2.1,0,0,0,.63-0.81A0.36,0.36,0,0,0,74.84,81l-0.31-.06a1.23,1.23,0,0,1-.85-1A7.12,7.12,0,0,1,73.25,81.06ZM75.09,80a0.57,0.57,0,0,0-.62-0.59,0.8,0.8,0,0,0-.41.42,0.85,0.85,0,0,0,.85,1c0-.14.06-0.29,0.08-0.34S75,80.08,75.09,80Z"/><path class="cls-1" d="M79,82.7a0.69,0.69,0,0,0-.39.32,0.83,0.83,0,0,1-.24.06s0,0,0,0a0.1,0.1,0,0,1-.07,0c-0.6,0-.45-0.24-0.62-0.32a0.34,0.34,0,0,0,.06-0.1,0.48,0.48,0,0,1,0-.14,7.35,7.35,0,0,1,.31-1.33L78.45,80a1.58,1.58,0,0,0,.18-0.35H78.56a5.88,5.88,0,0,1-1.21.38,0.41,0.41,0,0,1-.2,0,0.62,0.62,0,0,1-.11.1c-0.2.22-.83,0.69-0.83,0.73a1.15,1.15,0,0,1-.63.38V81.15c0-.24.63-0.45,0.71-0.73A3.55,3.55,0,0,0,77,79.69V79.63a1.39,1.39,0,0,1,.56-1,0.21,0.21,0,0,1,.15-0.06,0.28,0.28,0,0,1,.35.31c-0.13.08-.11,0.22-0.17,0.22v0c0,0.14-.28.39-0.28,0.5,0.25,0,.66-0.31.87-0.31A1.64,1.64,0,0,1,79.29,79c0.2,0,.45,0,0.45.2a0.16,0.16,0,0,1-.08.13,2.36,2.36,0,0,1-.34.69,0.07,0.07,0,0,0,0,.07,6.82,6.82,0,0,0-.41.78,5.46,5.46,0,0,0-.24,1.08,0.06,0.06,0,0,1,0,0,2.81,2.81,0,0,0,.07.42A0.33,0.33,0,0,0,79,82.27c0.21,0,.56-0.6.91-0.67a3.78,3.78,0,0,1,.85-1,5.77,5.77,0,0,1,1-.94,0.38,0.38,0,0,1,.14.18,0.49,0.49,0,0,1-.08.08,3.22,3.22,0,0,1-1,1,10,10,0,0,1-1.22,1.22A5,5,0,0,0,79,82.7Z"/><path class="cls-1" d="M84,80.54c0.38-.28.62-0.71,0.9-0.87a0.37,0.37,0,0,1,.14.18,0.49,0.49,0,0,1-.08.08,3.7,3.7,0,0,1-.91,1c-0.29.29-.57,0.55-0.91,0.91l-0.06.06a2.07,2.07,0,0,1-1.29.8c-0.46,0-.46-0.34-0.46-0.6V82a6,6,0,0,1,.08-0.67V81.18a0.52,0.52,0,0,1,0-.15l0-.07a0.3,0.3,0,0,0,.08-0.14,0.19,0.19,0,0,1,0-.07,0.21,0.21,0,0,0,0-.06l0.14-.38a0.15,0.15,0,0,0,0-.06h0s0,0,0-.07a0.17,0.17,0,0,0,0-.1,0.07,0.07,0,0,0,0-.06s0-.08,0-0.11l0-.18V79.47c0.15-.15-0.08-0.39.6-0.39a0.43,0.43,0,0,1,.39.14c0,0.07,0,.13,0,0.18a0.15,0.15,0,0,0,0,.07,2.22,2.22,0,0,0-.15.8c0,0.5-.18.53-0.21,1.12a6.54,6.54,0,0,0-.06.74A4.32,4.32,0,0,0,83.56,81,2,2,0,0,0,84,80.54Zm-1.91-3.91a0.89,0.89,0,0,1,.42-0.48,0.49,0.49,0,0,1,.5.55,2.6,2.6,0,0,1-.11.41,0.17,0.17,0,0,0,0,.08c-0.07,0,0,0-.06.07a0.44,0.44,0,0,0-.2,0,0.15,0.15,0,0,0-.17.11C82.16,77.24,82.21,77,82.09,76.64Z"/><path class="cls-1" d="M89.24,81.9a2,2,0,0,1-1.25.78c-0.45,0-.34-0.43-0.39-0.55a6.62,6.62,0,0,1-.28-1.81,0.71,0.71,0,0,1,0-.24V79.78a2,2,0,0,0,0-.28,9.64,9.64,0,0,1-1,1.25c-0.07,0-.46.79-0.59,0.94a3.76,3.76,0,0,1-1,1,0.34,0.34,0,0,1-.31-0.41l0.11-.94a0.76,0.76,0,0,0,0-.18L84.59,81V80.88a4,4,0,0,1,.14-1.12,0.18,0.18,0,0,1,0-.1V79.61c0-.39,0-0.91.27-0.91a1.41,1.41,0,0,0,.24,0c0.22,0,.22,0,0.22,0a0.75,0.75,0,0,1,.32.38,4.4,4.4,0,0,1-.08.6s0,0.1,0,.15a0.81,0.81,0,0,0-.08.41v0.17a0.52,0.52,0,0,1,0,.21v0.08c0,0.17-.08.45-0.08,0.57a0.07,0.07,0,0,0,0,.06c0.43-.49.62-0.9,1-1.39a0.1,0.1,0,0,1,.08-0.13V79.75A1.31,1.31,0,0,1,87,79.31a0.74,0.74,0,0,1,.87-0.53c0.14,0,.28,0,0.28.14a0.84,0.84,0,0,1,0,.18,5.49,5.49,0,0,0,.11,1.36v0.1A3.27,3.27,0,0,0,88.57,82,6.94,6.94,0,0,0,90,80.53c0.39-.25.71-0.69,1-0.84a0.38,0.38,0,0,1,.14.18,0.49,0.49,0,0,1-.08.08,3.24,3.24,0,0,1-1,1c-0.29.29-.5,0.53-0.83,0.87Z"/><path class="cls-1" d="M94.14,82.32a2.74,2.74,0,0,1-.73.66,1,1,0,0,1-.34.28,0.21,0.21,0,0,1,0,.08,0.23,0.23,0,0,1-.07.15,0.1,0.1,0,0,1,0,0,0.05,0.05,0,0,0,0,0,0.19,0.19,0,0,0,0,.07h0a0.18,0.18,0,0,1,0,.08c0,0.14-.27.73-0.27,0.84a1.38,1.38,0,0,1-.13.42,0.51,0.51,0,0,1-.11.25s0,0,0,0a1.58,1.58,0,0,1-.21.38,0.05,0.05,0,0,1,0,0,1.24,1.24,0,0,0-.11.27v0c-0.11.08-.39,0.15-0.45,0.21H92a0.2,0.2,0,0,0,0,.06,3,3,0,0,0-.5.84,2.74,2.74,0,0,1-.29.42,7,7,0,0,1-.73.55,0.57,0.57,0,0,1-.38.2,0.05,0.05,0,0,0,0,0l-0.08,0a4.34,4.34,0,0,1-.63-0.2,3.72,3.72,0,0,1-.13-0.62,0.13,0.13,0,0,1,.06-0.08,0.56,0.56,0,0,1,0-.21,1.37,1.37,0,0,1,.14-0.64V86.34a0.28,0.28,0,0,1,.07-0.13,0.12,0.12,0,0,1,0-.07,0.36,0.36,0,0,1,.15-0.24s0,0-.06,0,0.24-.38.27-0.38A0.22,0.22,0,0,1,90,85.36v0s0,0,0,0v0c0.57-.53,1.93-1.82,1.93-1.86l0.07,0a0.32,0.32,0,0,1,.15-0.11,0.11,0.11,0,0,1,0-.07c0-.34.28-0.66,0.29-1a1.9,1.9,0,0,1,.18-0.38,0.19,0.19,0,0,1,0-.06c0-.18.28-0.62,0.34-0.9A7.16,7.16,0,0,0,92,82l-0.49.36s-0.22,0-.32.1a2.4,2.4,0,0,1-.5-0.13A1.07,1.07,0,0,1,90.51,82s0-.15,0-0.22c0-.24.14-0.53,0.14-0.7a0.5,0.5,0,0,1,0-.08c0.07,0,0-.06.06-0.06h0a0,0,0,0,1,0-.06,0.17,0.17,0,0,1,.1-0.14s0-.06,0-0.08a1.75,1.75,0,0,1,.49-0.84,3.18,3.18,0,0,1,.45-0.41,1.33,1.33,0,0,1,.94-0.31,1.24,1.24,0,0,1,.77.25,0.71,0.71,0,0,0,.08-0.14,0.05,0.05,0,0,0,0,0c0-.14.07-0.14,0.2-0.14a1,1,0,0,1,.63.2c-0.25.35-.13,1-0.38,1.23a0.29,0.29,0,0,1,0,.07,0.05,0.05,0,0,0,0,0s-0.32,1-.39,1a0.43,0.43,0,0,1-.08.29c0,0.38-.21.46-0.21,0.83,0,0,.39-0.32.42-0.34a19.46,19.46,0,0,0,1.51-1.6,2.33,2.33,0,0,1,.15-0.24c0.39-.24.71-0.67,1-0.83a0.37,0.37,0,0,1,.14.18,0.45,0.45,0,0,1-.08.08,3.22,3.22,0,0,1-1,1c-0.29.29-.5,0.53-0.83,0.87A5.16,5.16,0,0,1,94.14,82.32ZM91,84.58a7.93,7.93,0,0,0-.74.69,1.8,1.8,0,0,1-.45.71,0.08,0.08,0,0,0,0,.06,2,2,0,0,0-.31,1.23,1.22,1.22,0,0,0,.08.45A2.37,2.37,0,0,0,90.4,87a11.53,11.53,0,0,0,.74-1v0c0-.08.11-0.15,0.11-0.22a1.19,1.19,0,0,1,.28-0.48,0.11,0.11,0,0,1,0-.06,1.61,1.61,0,0,1,.08-0.21,0.05,0.05,0,0,0,0,0A6.52,6.52,0,0,0,92,83.74c-0.24,0-.41.39-0.64,0.45C91.33,84.44,91,84.37,91,84.58Zm1.74-5.21c-0.06.13-.53,0.2-0.53,0.29l-0.48.76s0,0,0,0v0.08a0.07,0.07,0,0,1-.06.06,0.79,0.79,0,0,1-.18.49,1.33,1.33,0,0,0-.13.63,0.71,0.71,0,0,0,.11.29,0.41,0.41,0,0,0,.18-0.11,3.21,3.21,0,0,0,1-1,0.18,0.18,0,0,1,.06-0.13l0.36-.57a1.7,1.7,0,0,0,.22-0.59A0.85,0.85,0,0,0,93,79.41,1.37,1.37,0,0,1,92.78,79.37Z"/><path class="cls-1" d="M104.28,82.46a2,2,0,0,1-.43.11,7.92,7.92,0,0,1-.85-0.24,0.85,0.85,0,0,1-.58.36,0.53,0.53,0,0,1-.39-0.6,0.07,0.07,0,0,0,.06-0.07l0-.13a1.14,1.14,0,0,1,.78-0.48,0.67,0.67,0,0,0,.29.34,0.71,0.71,0,0,1,.14-0.06,2.38,2.38,0,0,0,.46-0.52,1.82,1.82,0,0,0,.35-0.91,1.92,1.92,0,0,0-.18-1,1.73,1.73,0,0,0-1.22,1,3.32,3.32,0,0,0-.83,1.16,5.64,5.64,0,0,1-.57.74h0a0.17,0.17,0,0,1,.07.07,0.15,0.15,0,0,0-.07.08,0.08,0.08,0,0,1-.07,0,0.86,0.86,0,0,0-.17.43,0.1,0.1,0,0,1,0,0v0.11a0.42,0.42,0,0,0-.07.08,0.15,0.15,0,0,0,0,.07,0.25,0.25,0,0,0-.07.06,0.1,0.1,0,0,1,0,0,1.16,1.16,0,0,1-.1.18,0.19,0.19,0,0,1,0,.08,1.87,1.87,0,0,1-.15.41,1,1,0,0,1-.2.53,0.08,0.08,0,0,1,0,.06,0.39,0.39,0,0,1-.13.25,0.16,0.16,0,0,1,0,.07,0.08,0.08,0,0,1,0,.08s0,0,0,0,0,0.24-.15.25a0.11,0.11,0,0,1,0,.06c0,0.07,0,.14-0.07.14a0.17,0.17,0,0,0,0,.08,1.15,1.15,0,0,0-.17.31,2.32,2.32,0,0,0-.1.48l-0.07,0a0.17,0.17,0,0,1,0,.08l-0.06.27a0.1,0.1,0,0,0-.06,0c-0.06.31-.18,0.46-0.22,0.7-0.29.2-.34,0.64-0.64,0.83a1.84,1.84,0,0,1-.48.42c-0.55,0-.63-0.13-0.63-0.34V87.79A1.72,1.72,0,0,1,98.07,87l0-.07a4,4,0,0,1,.67-1.33,1.78,1.78,0,0,1,.55-0.9h0l0.17-.31,0-.06a0.5,0.5,0,0,0,.18-0.36,0.33,0.33,0,0,1,0-.06,0.55,0.55,0,0,0,.08-0.22,2,2,0,0,0,.18-0.45,0.06,0.06,0,0,1,0,0s0.08-.24.14-0.35,0-.07,0-0.11a1,1,0,0,1,.15-0.29s0,0,0,0a2.5,2.5,0,0,1,.32-0.91,0.48,0.48,0,0,1,0-.08,0.12,0.12,0,0,1,0-.08,0.29,0.29,0,0,0,0-.07,2.2,2.2,0,0,0,.18-0.63V80.53a2.33,2.33,0,0,0,.18-0.69,7.28,7.28,0,0,1,.38-1.18,0.07,0.07,0,0,1,0,0l0.06-.15a0.05,0.05,0,0,0,0,0,0.42,0.42,0,0,1,.39-0.17,0.86,0.86,0,0,1,.64.24,2.46,2.46,0,0,0-.31.71,0.1,0.1,0,0,1,0,.06s0,0-.06,0,0,0.06,0,.06a0,0,0,0,1,0,0h0l0,0.13a0.1,0.1,0,0,1-.06,0,0.16,0.16,0,0,1,0,0,0.83,0.83,0,0,1-.18.49,0.45,0.45,0,0,1-.13.35,0.33,0.33,0,0,0,0,.06,0.08,0.08,0,0,1,0,0,1.15,1.15,0,0,1-.13.63,1.66,1.66,0,0,0,0,.2h-0.06a0.53,0.53,0,0,0,0,.11,0.24,0.24,0,0,0-.11.13,0.05,0.05,0,0,0,0,0,2.9,2.9,0,0,0-.07.39,0.88,0.88,0,0,0,.25-0.35,0.33,0.33,0,0,1,.08-0.13,0.1,0.1,0,0,0,0-.06,0.23,0.23,0,0,0,.06,0s0.35-.56.41-0.63a0.35,0.35,0,0,0,.11-0.2c0.28-.06.22-0.53,0.5-0.56a1.72,1.72,0,0,1,.2-0.39,1.31,1.31,0,0,0,.39-0.29V79.26A2.73,2.73,0,0,1,104,79c0.41,0,.45.63,0.45,0.9a2.29,2.29,0,0,1-.66,1.71c0,0.2-.29.2-0.31,0.39a0.75,0.75,0,0,0,.57.21c0.07,0,.22-0.17.22-0.15,0.25,0,.38-0.31.67-0.35a7.19,7.19,0,0,0,1-1.12c0.43-.25.67-0.66,1-0.81a0.39,0.39,0,0,1,.17.18L107,80a4.2,4.2,0,0,1-1.05,1.06c-0.5.5-.39,0.48-0.78,0.83A3.42,3.42,0,0,1,104.28,82.46Zm-5.73,3.89a3.16,3.16,0,0,0-.22.52,1.26,1.26,0,0,0-.17.42,0.18,0.18,0,0,0,0,.08,0.54,0.54,0,0,0-.07.24,0.16,0.16,0,0,0,0,.11,0.42,0.42,0,0,1,.18-0.17s0,0,0,0a1.17,1.17,0,0,1,.22-0.38,0.33,0.33,0,0,0,0-.07,2.16,2.16,0,0,0,.35-0.74,0.08,0.08,0,0,0,0,0A0.53,0.53,0,0,0,99,86a0.14,0.14,0,0,0,0-.07c0.13-.11.1-0.32,0.21-0.42a0.07,0.07,0,0,1,0,0,4.26,4.26,0,0,0,.27-0.67s-0.67,1.16-.64,1.13a0.29,0.29,0,0,1,0,.06,0.53,0.53,0,0,0-.17.36S98.55,86.33,98.55,86.36Zm3.94-4a0.39,0.39,0,0,0,.34-0.36,0.22,0.22,0,0,0-.11-0.2,0.34,0.34,0,0,0-.34.38,0.34,0.34,0,0,0,0,.17h0.07Z"/><path class="cls-1" d="M108.84,82.7a0.69,0.69,0,0,0-.39.32,0.83,0.83,0,0,1-.24.06s0,0,0,0a0.1,0.1,0,0,1-.07,0c-0.6,0-.45-0.24-0.62-0.32a0.34,0.34,0,0,0,.06-0.1,0.48,0.48,0,0,1,0-.14,7.26,7.26,0,0,1,.31-1.33l0.5-1.18a1.58,1.58,0,0,0,.18-0.35h-0.07a5.88,5.88,0,0,1-1.21.38,0.41,0.41,0,0,1-.2,0,0.62,0.62,0,0,1-.11.1c-0.2.22-.83,0.69-0.83,0.73a1.15,1.15,0,0,1-.63.38V81.15c0-.24.63-0.45,0.71-0.73a3.51,3.51,0,0,0,.66-0.73V79.63a1.39,1.39,0,0,1,.56-1,0.21,0.21,0,0,1,.15-0.06,0.28,0.28,0,0,1,.35.31c-0.13.08-.11,0.22-0.17,0.22v0c0,0.14-.28.39-0.28,0.5,0.25,0,.66-0.31.87-0.31a1.64,1.64,0,0,1,.84-0.39c0.2,0,.45,0,0.45.2a0.16,0.16,0,0,1-.08.13,2.34,2.34,0,0,1-.34.69,0.07,0.07,0,0,0,0,.07,6.82,6.82,0,0,0-.41.78,5.46,5.46,0,0,0-.24,1.08,0.06,0.06,0,0,1,0,0,2.81,2.81,0,0,0,.07.42,0.33,0.33,0,0,0,.24-0.13c0.21,0,.56-0.6.91-0.67a3.78,3.78,0,0,1,.85-1,5.77,5.77,0,0,1,1-.94,0.38,0.38,0,0,1,.14.18,0.49,0.49,0,0,1-.08.08,3.22,3.22,0,0,1-1,1,9.94,9.94,0,0,1-1.22,1.22A5.06,5.06,0,0,0,108.84,82.7Z"/><path class="cls-1" d="M114.68,80.84l-0.32.1-0.28,0V80.91L114,81,113.7,81h-0.06a3,3,0,0,1-2,1.68,0.68,0.68,0,0,1-.7-0.53c0-.08-0.06,0-0.06-0.07l0-.07s0-.2-0.07-0.25a2,2,0,0,1,.11-0.57c0-.18,0-0.29,0-0.38a0.92,0.92,0,0,1,.15-0.49,1.7,1.7,0,0,1,.7-1,1.51,1.51,0,0,1,.8-0.28l0.32,0a0.14,0.14,0,0,1,.11,0,0.19,0.19,0,0,1,.17.06h0.13c0.49,0,.6.59,0.6,1.08a2.56,2.56,0,0,1-.17.59l0.11,0a2.12,2.12,0,0,0,.77-0.21c0.39-.25.71-0.69,1-0.84a0.38,0.38,0,0,1,.14.18,4.52,4.52,0,0,1-.79.84Zm-2.84.22,0,0.07,0,0.06a0.54,0.54,0,0,0,0,.08,1.35,1.35,0,0,1-.06.22,2.76,2.76,0,0,0,.2.78,6.75,6.75,0,0,0,.67-0.35,2.1,2.1,0,0,0,.63-0.81,0.36,0.36,0,0,0,.13-0.13l-0.31-.06a1.23,1.23,0,0,1-.85-1A7.12,7.12,0,0,1,111.84,81.06ZM113.67,80a0.57,0.57,0,0,0-.62-0.59,0.79,0.79,0,0,0-.41.42,0.85,0.85,0,0,0,.85,1c0-.14.06-0.29,0.08-0.34S113.62,80.08,113.67,80Z"/><path class="cls-1" d="M116.26,78.63c0.13-.32.48-1.64,0.59-1.86a0,0,0,0,0,0-.06l0.08-.07a0.12,0.12,0,0,1,0-.07l0.14-.48V76c0.11-.08.08-0.42,0.15-0.42a0,0,0,0,0,0,0,0.29,0.29,0,0,0,0-.06,1.27,1.27,0,0,1,.14-0.45,5.13,5.13,0,0,1,.52-1.29,0.15,0.15,0,0,1,0-.06,2.65,2.65,0,0,1,.39-0.67,1.84,1.84,0,0,1,.71-0.17c0.88,0,.57.14,0.77,0.38a8,8,0,0,1-.32,1.22,6.86,6.86,0,0,1-.34.84c0,0.55-.74,1.22-1.09,1.88a1.84,1.84,0,0,0-.52,1.06,0.94,0.94,0,0,1-.18.55c0,0.41-.24,1-0.28,1.39l-0.07,0a0.15,0.15,0,0,1,0,.1c0,0.11-.08.22-0.08,0.36,0.46-.81.62-0.81,0.66-0.81a1.65,1.65,0,0,1,.57-0.56,4,4,0,0,1,1-.46,1,1,0,0,1,.87.92c0,0.81-.63,1.16-0.94,1.72a12.59,12.59,0,0,1-1.06.83l-0.17.15a2.53,2.53,0,0,1-1,.42,0.41,0.41,0,0,1-.27-0.15,0.2,0.2,0,0,1,.24-0.22h0.11s0.06,0,.06,0h0c0.08,0,.15-0.08.22-0.08h0.07A3,3,0,0,1,117.9,82a5.52,5.52,0,0,0,.53-0.48,6.82,6.82,0,0,0,1.11-1.23,0.07,0.07,0,0,1,0-.07,0.5,0.5,0,0,1,.08-0.28,0.74,0.74,0,0,1-.07-0.28,0.77,0.77,0,0,0-.53-0.48,2.14,2.14,0,0,0-1,.49,0.05,0.05,0,0,0,0,0,2.38,2.38,0,0,1-.29.22,0.13,0.13,0,0,1,0,.08,0.86,0.86,0,0,0-.41.43,0.38,0.38,0,0,1-.2.29,11.66,11.66,0,0,0-.56,1.13,0.05,0.05,0,0,0,0,0,1.54,1.54,0,0,1-.28.52c0,0.48-.43.29-0.73,0.52h-0.15a0.38,0.38,0,0,0-.28-0.17,1,1,0,0,1,0-.11s0,0,0,0a1.38,1.38,0,0,1,.2-0.45,0.08,0.08,0,0,1,0-.06l0.06-.2a0.11,0.11,0,0,0,0-.06,0.08,0.08,0,0,0,.08-0.06s0-.11,0-0.17c0.24-.39.45-1.81,0.62-1.81a0.19,0.19,0,0,1,0-.08,0.18,0.18,0,0,1,0-.08,4.18,4.18,0,0,1-.43.43c-0.2.22-.83,0.69-0.83,0.73a1.15,1.15,0,0,1-.63.38V81.15c0-.24.63-0.45,0.71-0.73a4.8,4.8,0,0,0,.57-0.66c0.43-.32.34-0.48,0.79-0.83,0-.06,0-0.11,0-0.18Zm3-5.07a0.69,0.69,0,0,0-.07-0.29c-0.24,0-.67,1.29-0.85,1.47a2.08,2.08,0,0,1-.24.7c-0.07.42-.25,0.9-0.28,1.3a2.1,2.1,0,0,1,.39-0.39c0-.06.06-0.21,0.06-0.25a3.89,3.89,0,0,0,.41-0.74,2.72,2.72,0,0,1,.27-0.55V74.75c0-.07,0-0.14.07-0.15V74.48a0.79,0.79,0,0,0,.11-0.34C119.12,73.91,119.27,73.84,119.27,73.56Z"/><path class="cls-1" d="M120.66,82.83h0a1.13,1.13,0,0,0-.15.06c-0.13-.06-0.46,0-0.46-0.18a0.67,0.67,0,0,1,0-.17s-0.06,0-.07,0a0.05,0.05,0,0,0,0,0,0.36,0.36,0,0,0-.11-0.14,0.61,0.61,0,0,0,.07-0.17,0.06,0.06,0,0,0,0,0,0.11,0.11,0,0,0,.06-0.1,0.3,0.3,0,0,0-.06-0.14,6.34,6.34,0,0,0,.14-1.48,3.43,3.43,0,0,0,.13-0.8s0,0,0,0a2,2,0,0,0,.2-0.66,14,14,0,0,1,.69-2.34,17.26,17.26,0,0,1,.8-2.65,1.22,1.22,0,0,1,1.29-1c0.6,0,.62.27,0.62,0.43a4.74,4.74,0,0,1-.38,1.48,8.51,8.51,0,0,1-.57,1.36,5.47,5.47,0,0,1-.55.67,1.2,1.2,0,0,1-.42.57,7.45,7.45,0,0,0-.52,1.83,5.54,5.54,0,0,1-.21.7c0,0.62-.14,1.2-0.14,1.74a0.6,0.6,0,0,0,.18.56,0.43,0.43,0,0,1,.28-0.24,5.6,5.6,0,0,0,1.44-1.43c0.39-.25.71-0.69,1-0.84a0.37,0.37,0,0,1,.14.18,0.49,0.49,0,0,1-.08.08,3.23,3.23,0,0,1-1,1c-0.29.29-.5,0.53-0.83,0.87A3.53,3.53,0,0,1,120.66,82.83Zm2.09-8.7c0,0.08-.15.15-0.15,0.25a0.05,0.05,0,0,0,0,0c-0.14.21-.28,0.84-0.32,0.84a7.41,7.41,0,0,0-.28.84,4.74,4.74,0,0,1-.15.64c0.14-.11.63-0.94,0.7-0.94a0.4,0.4,0,0,0,.1-0.24,7.08,7.08,0,0,0,.32-0.76,3.31,3.31,0,0,0,.38-1.32c0-.08,0-0.21-0.07-0.21l0,0,0,0,0,0,0,0a1.48,1.48,0,0,0-.29.45A0.85,0.85,0,0,0,122.74,74.13Z"/><path class="cls-1" d="M125.36,82.17l-0.35.27a2.5,2.5,0,0,1-.83.35,1,1,0,0,1-.31.07,0.14,0.14,0,0,1-.13-0.06,0.6,0.6,0,0,1-.22,0,0.73,0.73,0,0,1-.73-0.74c0-.17.13-0.5,0.13-0.73a4.27,4.27,0,0,1,.24-0.55c0-.46.73-1,0.79-1.27a0.52,0.52,0,0,0,.27-0.25,2.59,2.59,0,0,1,.77-0.24,0.74,0.74,0,0,1,.74.7,0.91,0.91,0,0,1-.55.73,1.11,1.11,0,0,1-.5.29l-0.77.45a1.39,1.39,0,0,0-.18.8c0,0.2,0,.38.17,0.38H124l0.08,0A1.46,1.46,0,0,0,125,82a5.9,5.9,0,0,0,.53-0.41,8.72,8.72,0,0,0,1-1c0.39-.25.66-0.71,0.94-0.87a0.37,0.37,0,0,1,.14.18,0.45,0.45,0,0,1-.08.08,3.29,3.29,0,0,1-.92,1l-0.85.87A1.79,1.79,0,0,1,125.36,82.17Zm-1-1.9a1.7,1.7,0,0,0-.29.55,2.34,2.34,0,0,0,1.18-.7,0.64,0.64,0,0,0,.21-0.41,0.26,0.26,0,0,0-.22-0.31,1,1,0,0,0-.34.17,0.09,0.09,0,0,1-.07,0A2.09,2.09,0,0,0,124.32,80.27Z"/><path class="cls-1" d="M135.61,80.63a5.73,5.73,0,0,1,1-.94,0.38,0.38,0,0,1,.14.18,0.49,0.49,0,0,1-.08.08,3.23,3.23,0,0,1-1,1,9.23,9.23,0,0,1-1.23,1.22,2.8,2.8,0,0,1-1.05.56,0.43,0.43,0,0,1-.38-0.53c0-.41-0.27-1.26-0.27-1.61a1,1,0,0,1,0-.21,1.35,1.35,0,0,1,0-.32V79.89a3.09,3.09,0,0,0,0-.34,2.72,2.72,0,0,0-.52.55l-0.21.38a2.67,2.67,0,0,0-.22.27,9,9,0,0,1-1.29,1.7,0.82,0.82,0,0,1-.56.21,0.28,0.28,0,0,1-.32-0.22c0-.08,0-0.2,0-0.32a19.2,19.2,0,0,1-.22-2.21,8.81,8.81,0,0,0-.77.84v0.08c-0.13.1-.35,0.5-0.39,0.5a0.06,0.06,0,0,1,0,0,0.91,0.91,0,0,1-.31.46,0.61,0.61,0,0,1,0,.15,5,5,0,0,1-.74.77,0.33,0.33,0,0,1-.31-0.39c0-.29.13-0.62,0.13-0.94V81.16l0.08-.17V80.85a4,4,0,0,1,.15-1.12,0.43,0.43,0,0,1,0-.13c0-.13.06-0.27,0.06-0.42,0-.34-0.07-0.5.31-0.5a3,3,0,0,1,.35,0,0.18,0.18,0,0,0,.06,0,0.36,0.36,0,0,1,.31.35,5.05,5.05,0,0,1-.1.64s0,0.1,0,.15a4,4,0,0,0-.13.77,0.25,0.25,0,0,1,0,.1c0,0.1,0,.2,0,0.27a0.11,0.11,0,0,0,0,.07L129,80a1.82,1.82,0,0,1,.63-0.87c0-.22.11-0.22,0.42-0.22h0.06a0.28,0.28,0,0,0,.17,0c0.15,0.9.22,1.89,0.31,2.84v0.13c0.6-.5.9-1.3,1.49-1.88,0,0,0-.15.08-0.15v0a1.34,1.34,0,0,1,.38-0.45,0.79,0.79,0,0,1,.9-0.53c0.14,0,.25,0,0.25.17v0.15a9.14,9.14,0,0,0,.29,2.66,0.59,0.59,0,0,0,.1.25c0.21-.07.38-0.35,0.57-0.41C135.05,81.36,135.22,80.91,135.61,80.63Z"/><path class="cls-1" d="M135.77,80.83a1.07,1.07,0,0,1-.21,0s-0.06,0-.06,0a1.67,1.67,0,0,1,.35-0.42,7.86,7.86,0,0,0,.57-0.66c0.36-.31.35-0.45,0.62-0.66a0.1,0.1,0,0,1,0-.06,1,1,0,0,1,.74-0.18,0.07,0.07,0,0,1,.07.07,0.07,0.07,0,0,0,0,.08v0a0.63,0.63,0,0,0,.08.13,0.15,0.15,0,0,1,0,.07L138,79.83a0.21,0.21,0,0,1,0,.14l0.13,0.13a0.37,0.37,0,0,0,0,.2,4.81,4.81,0,0,0,.07.62,2.11,2.11,0,0,0,.94-0.28c0.06,0,.9-0.83,1.09-0.94a0.38,0.38,0,0,1,.14.18,0.49,0.49,0,0,1-.08.08,3.1,3.1,0,0,1-1,1,3.45,3.45,0,0,1-1.08.21,2,2,0,0,1-.43,1.12,0.1,0.1,0,0,1,0,.06,1.61,1.61,0,0,1-1.19.45c-0.24-.15-0.43-0.13-0.43-0.53a0.23,0.23,0,0,1,.11-0.21,0.19,0.19,0,0,1-.06,0,3.06,3.06,0,0,1,1-.81,8.89,8.89,0,0,0-.22-1.39C136.81,79.83,135.77,80.85,135.77,80.83Zm0.94,1.68c0.36,0,.35-0.32.46-0.49a0.1,0.1,0,0,1,0-.07c0-.07,0-0.14,0-0.22a0.13,0.13,0,0,0,0-.07,0.13,0.13,0,0,0,0-.08V81.46a1.11,1.11,0,0,0-.77.78A0.3,0.3,0,0,0,136.71,82.51Z"/><path class="cls-1" d="M63.82,93.83c-0.91,0-1-.39-1-0.85,0-.06.06-0.13,0.07-0.21V92.64s0.15-.41.15-0.42a1,1,0,0,1,.36-0.77,3.22,3.22,0,0,1,.52-0.8,0,0,0,0,1,0,0,0.62,0.62,0,0,0,.1-0.2,0,0,0,0,1,0,0,1.18,1.18,0,0,1,1-.45,0.64,0.64,0,0,1,.64.66,1,1,0,0,1-.6.8,0.36,0.36,0,0,1-.18-0.2A1,1,0,0,0,65,91.27a0.53,0.53,0,0,0,.45-0.5,0.41,0.41,0,0,0-.31-0.46c-0.48,0-.87,1.22-1.09,1.34,0,0.49-.39.9-0.39,1.42a0.84,0.84,0,0,0,.18.42,0.1,0.1,0,0,1,.14,0,4.31,4.31,0,0,0,1.5-.87c0.2-.28.41-0.39,0.57-0.66a1.69,1.69,0,0,0,.46-0.42c0.39-.25.57-0.67,0.85-0.83a0.38,0.38,0,0,1,.14.18,0.45,0.45,0,0,1-.08.08,3.28,3.28,0,0,1-.92,1,7,7,0,0,1-.85.87A2.76,2.76,0,0,1,63.82,93.83Z"/><path class="cls-1" d="M69.31,93.7a0.69,0.69,0,0,0-.39.32,0.83,0.83,0,0,1-.24.06s0,0,0,0a0.1,0.1,0,0,1-.07,0c-0.6,0-.45-0.24-0.62-0.32a0.34,0.34,0,0,0,.06-0.1,0.48,0.48,0,0,1,0-.14,7.26,7.26,0,0,1,.31-1.33L68.8,91A1.58,1.58,0,0,0,69,90.66H68.92a5.88,5.88,0,0,1-1.21.38,0.41,0.41,0,0,1-.2,0,0.62,0.62,0,0,1-.11.1c-0.2.22-.83,0.69-0.83,0.73a1.15,1.15,0,0,1-.63.38V92.15c0-.24.63-0.45,0.71-0.73a3.51,3.51,0,0,0,.66-0.73V90.63a1.39,1.39,0,0,1,.56-1A0.21,0.21,0,0,1,68,89.61a0.28,0.28,0,0,1,.35.31c-0.13.08-.11,0.22-0.17,0.22v0c0,0.14-.28.39-0.28,0.5,0.25,0,.66-0.31.87-0.31A1.64,1.64,0,0,1,69.65,90c0.2,0,.45,0,0.45.2a0.16,0.16,0,0,1-.08.13,2.34,2.34,0,0,1-.34.69,0.07,0.07,0,0,0,0,.07,6.82,6.82,0,0,0-.41.78,5.46,5.46,0,0,0-.24,1.08,0.06,0.06,0,0,1,0,0,2.81,2.81,0,0,0,.07.42,0.33,0.33,0,0,0,.24-0.13c0.21,0,.56-0.6.91-0.67a3.78,3.78,0,0,1,.85-1,5.77,5.77,0,0,1,1-.94,0.38,0.38,0,0,1,.14.18,0.49,0.49,0,0,1-.08.08,3.22,3.22,0,0,1-1,1A9.94,9.94,0,0,1,70,93.18,5.06,5.06,0,0,0,69.31,93.7Z"/><path class="cls-1" d="M73.66,93.17l-0.35.27a2.49,2.49,0,0,1-.83.35,1,1,0,0,1-.31.07,0.14,0.14,0,0,1-.13-0.06,0.6,0.6,0,0,1-.22,0,0.73,0.73,0,0,1-.73-0.74c0-.17.13-0.5,0.13-0.73a4.27,4.27,0,0,1,.24-0.55c0-.46.73-1,0.79-1.27a0.52,0.52,0,0,0,.27-0.25,2.59,2.59,0,0,1,.77-0.24,0.74,0.74,0,0,1,.74.7,0.91,0.91,0,0,1-.55.73,1.11,1.11,0,0,1-.5.29l-0.77.45A1.39,1.39,0,0,0,72,93c0,0.2,0,.38.17,0.38h0.1l0.08,0A1.46,1.46,0,0,0,73.3,93a6.07,6.07,0,0,0,.53-0.41,8.78,8.78,0,0,0,1-1c0.39-.25.66-0.71,0.94-0.87a0.37,0.37,0,0,1,.14.18,0.45,0.45,0,0,1-.08.08,3.29,3.29,0,0,1-.92,1L74,92.85A1.79,1.79,0,0,1,73.66,93.17Zm-1-1.9a1.7,1.7,0,0,0-.29.55,2.34,2.34,0,0,0,1.18-.7,0.64,0.64,0,0,0,.21-0.41,0.26,0.26,0,0,0-.22-0.31,1,1,0,0,0-.34.17,0.09,0.09,0,0,1-.07,0A2.09,2.09,0,0,0,72.63,91.27Z"/><path class="cls-1" d="M78.23,93.58a4.33,4.33,0,0,1-.31.35,1,1,0,0,1-.74.32c-0.25,0-.25-0.42-0.25-0.64A6.18,6.18,0,0,1,77.15,92a1,1,0,0,1-.13.11,0.87,0.87,0,0,1-.2.27,10.76,10.76,0,0,1-1,.91,0.8,0.8,0,0,1-.42.21c-0.42-.06-0.77-0.14-0.77-0.63a0.62,0.62,0,0,1,.15-0.55,0.33,0.33,0,0,1,0-.11,0.16,0.16,0,0,1,0-.11,0.21,0.21,0,0,1,0-.08,2,2,0,0,1,.28-0.53c0-.07,0-0.1,0-0.15a0.33,0.33,0,0,1,0-.06c0.28,0,.41-1.11,1.67-1.11l0.31,0h0.07a2.38,2.38,0,0,1,.43.21,0.45,0.45,0,0,1,.15-0.28c0.15,0,.52,0,0.67.06a0.1,0.1,0,0,0,.08.08c0,0.08-.06.15-0.06,0.22a0.08,0.08,0,0,0,0,.06,15,15,0,0,0-.62,3A3.46,3.46,0,0,1,78.31,93a11.7,11.7,0,0,0,1.46-1.41,5.77,5.77,0,0,1,1-.94,0.38,0.38,0,0,1,.14.18,0.49,0.49,0,0,1-.08.08,3.22,3.22,0,0,1-1,1,7.84,7.84,0,0,1-1.23,1.22,1.62,1.62,0,0,0-.32.29Zm-2.3-1.95c0-.06-0.32.91-0.32,0.91a1.5,1.5,0,0,0,.08.52,2.46,2.46,0,0,0,.67-0.63L76.85,92A0.26,0.26,0,0,1,77,91.73,4.73,4.73,0,0,0,77.4,91s0,0,0,0a0.19,0.19,0,0,0,.08-0.14s-0.11,0-.11-0.11l0.1-.14a1.15,1.15,0,0,0-.29-0.21C76.32,90.35,76,91.63,75.93,91.63Z"/><path class="cls-1" d="M80.73,88a0.34,0.34,0,0,1-.17,0,0.3,0.3,0,0,1-.32-0.17c0-.13.14-0.13,0.22-0.13,0.6,0,.94.22,1.51,0.22a4.58,4.58,0,0,0,.53-1.39c0-.08,0-0.15,0-0.21s0.08-.2.64-0.2c0.18,0,.35,0,0.35.17l-0.14.36a2.88,2.88,0,0,0-.24.74,1,1,0,0,1-.07.27,0,0,0,0,0,0,0,1,1,0,0,0-.17.43,2.39,2.39,0,0,0,.87.2,3.18,3.18,0,0,0,.55,0c0.39,0,.62-0.17,1.05-0.17a14.69,14.69,0,0,0,2.3-1.12,0.24,0.24,0,0,1,.17.25,0.22,0.22,0,0,1,0,.07,0.12,0.12,0,0,1,0,.07,0.1,0.1,0,0,1-.11,0,0.23,0.23,0,0,0-.08.08l-0.73.28v0.06a6,6,0,0,1-1.76.66,2,2,0,0,1-.92.15A0.43,0.43,0,0,0,84,88.6c-0.2,0-.45,0-0.69,0a0.76,0.76,0,0,1-.45-0.11,5.92,5.92,0,0,1-.28,1.26c0,0.27-.14.42-0.14,0.6s-0.2.62-.2,0.94l0,0.18c0,0.1-.1.24-0.1,0.35,0,0.32,0,.43,0,0.56a0.64,0.64,0,0,0,0,.11,0.48,0.48,0,0,1-.06.2,2,2,0,0,0,.22.73A2.43,2.43,0,0,0,83,93.2,0.42,0.42,0,0,1,83.28,93a3.81,3.81,0,0,1,.56-0.41l0,0a3.43,3.43,0,0,1,.8-0.88,5.74,5.74,0,0,1,1-.94,0.37,0.37,0,0,1,.14.18,0.49,0.49,0,0,1-.08.08,3.23,3.23,0,0,1-1,1,7,7,0,0,1-2.2,1.92,0.65,0.65,0,0,0-.14.13c-0.11.11-.29,0-0.34,0.2A0.28,0.28,0,0,1,82,94.15l-0.34.06a1,1,0,0,1-.5-0.41,2.54,2.54,0,0,0-.11-0.7,0.6,0.6,0,0,0,0-.17,0.16,0.16,0,0,0,0-.1,0.2,0.2,0,0,0,0-.13,0.21,0.21,0,0,0,0-.14c0-.35.07-0.76,0.07-1.12a2.35,2.35,0,0,0,.13-0.81,4.78,4.78,0,0,1-.46.46c-0.2.22-.83,0.69-0.83,0.73a1.15,1.15,0,0,1-.63.38V92.15A0.14,0.14,0,0,1,79.46,92c0.1-.24.56-0.38,0.63-0.62a4.94,4.94,0,0,0,.57-0.66,2.39,2.39,0,0,0,.41-0.48,1.52,1.52,0,0,1,.41-0.36,10.08,10.08,0,0,0,.45-1.71A9,9,0,0,1,80.73,88Z"/><path class="cls-1" d="M87.76,91.54c0.38-.28.62-0.71,0.9-0.87a0.37,0.37,0,0,1,.14.18,0.49,0.49,0,0,1-.08.08,3.7,3.7,0,0,1-.91,1c-0.29.29-.57,0.55-0.91,0.91l-0.06.06a2.07,2.07,0,0,1-1.29.8c-0.46,0-.46-0.34-0.46-0.6V93a6,6,0,0,1,.08-0.67V92.18a0.52,0.52,0,0,1,0-.15l0-.07a0.3,0.3,0,0,0,.08-0.14,0.19,0.19,0,0,1,0-.07,0.21,0.21,0,0,0,0-.06l0.14-.38a0.15,0.15,0,0,0,0-.06h0s0,0,0-.07a0.17,0.17,0,0,0,0-.1,0.07,0.07,0,0,0,0-.06s0-.08,0-0.11l0-.18V90.47c0.15-.15-0.08-0.39.6-0.39a0.43,0.43,0,0,1,.39.14c0,0.07,0,.13,0,0.18a0.16,0.16,0,0,0,0,.07,2.22,2.22,0,0,0-.15.8c0,0.5-.18.53-0.21,1.12a6.54,6.54,0,0,0-.06.74A4.32,4.32,0,0,0,87.33,92,2,2,0,0,0,87.76,91.54Zm-1.91-3.91a0.89,0.89,0,0,1,.42-0.48,0.49,0.49,0,0,1,.5.55,2.6,2.6,0,0,1-.11.41,0.17,0.17,0,0,0,0,.08c-0.07,0,0,0-.06.07a0.44,0.44,0,0,0-.2,0,0.15,0.15,0,0,0-.17.11C85.93,88.24,86,88,85.86,87.64Z"/><path class="cls-1" d="M93,92.9a2,2,0,0,1-1.25.78c-0.45,0-.34-0.43-0.39-0.55a6.62,6.62,0,0,1-.28-1.81,0.71,0.71,0,0,1,0-.24V90.78a2,2,0,0,0,0-.28,9.64,9.64,0,0,1-1,1.25c-0.07,0-.46.79-0.59,0.94a3.76,3.76,0,0,1-1,1,0.34,0.34,0,0,1-.31-0.41l0.11-.94a0.76,0.76,0,0,0,0-.18L88.36,92V91.88a4,4,0,0,1,.14-1.12,0.18,0.18,0,0,1,0-.1V90.61c0-.39,0-0.91.27-0.91a1.41,1.41,0,0,0,.24,0c0.22,0,.22,0,0.22,0a0.75,0.75,0,0,1,.32.38,4.56,4.56,0,0,1-.08.6s0,0.1,0,.15a0.82,0.82,0,0,0-.08.41v0.17a0.52,0.52,0,0,1,0,.21v0.08c0,0.17-.08.45-0.08,0.57a0.07,0.07,0,0,0,0,.06c0.43-.49.62-0.9,1-1.39a0.1,0.1,0,0,1,.08-0.13V90.75a1.31,1.31,0,0,1,.36-0.43,0.74,0.74,0,0,1,.87-0.53c0.14,0,.28,0,0.28.14a0.84,0.84,0,0,1,0,.18A5.49,5.49,0,0,0,92,91.46v0.1A3.27,3.27,0,0,0,92.34,93a6.94,6.94,0,0,0,1.46-1.47c0.39-.25.71-0.69,1-0.84a0.38,0.38,0,0,1,.14.18,0.49,0.49,0,0,1-.08.08,3.23,3.23,0,0,1-1,1c-0.29.29-.5,0.53-0.83,0.87Z"/><path class="cls-1" d="M97.91,93.32a2.74,2.74,0,0,1-.73.66,1,1,0,0,1-.34.28,0.21,0.21,0,0,1,0,.08,0.23,0.23,0,0,1-.07.15,0.1,0.1,0,0,1,0,0,0.05,0.05,0,0,0,0,0,0.19,0.19,0,0,0,0,.07h0a0.18,0.18,0,0,1,0,.08c0,0.14-.27.73-0.27,0.84a1.38,1.38,0,0,1-.13.42,0.51,0.51,0,0,1-.11.25s0,0,0,0a1.58,1.58,0,0,1-.21.38,0.05,0.05,0,0,1,0,0,1.24,1.24,0,0,0-.11.27v0c-0.11.08-.39,0.15-0.45,0.21h0.25a0.2,0.2,0,0,0,0,.06,3,3,0,0,0-.5.84,2.74,2.74,0,0,1-.29.42,7,7,0,0,1-.73.55,0.57,0.57,0,0,1-.38.2,0.05,0.05,0,0,0,0,0l-0.08,0a4.34,4.34,0,0,1-.63-0.2,3.72,3.72,0,0,1-.13-0.62,0.13,0.13,0,0,1,.06-0.08,0.56,0.56,0,0,1,0-.21,1.37,1.37,0,0,1,.14-0.64V97.34a0.28,0.28,0,0,1,.07-0.13,0.12,0.12,0,0,1,0-.07,0.36,0.36,0,0,1,.15-0.24s0,0-.06,0,0.24-.38.27-0.38a0.22,0.22,0,0,1,.13-0.13v0s0,0,0,0v0c0.57-.53,1.93-1.82,1.93-1.86l0.07,0a0.32,0.32,0,0,1,.15-0.11,0.11,0.11,0,0,1,0-.07c0-.34.28-0.66,0.29-1a1.9,1.9,0,0,1,.18-0.38,0.19,0.19,0,0,1,0-.06c0-.18.28-0.62,0.34-0.9a7.16,7.16,0,0,0-.88,1l-0.49.36s-0.22,0-.32.1a2.4,2.4,0,0,1-.5-0.13A1.07,1.07,0,0,1,94.28,93s0-.15,0-0.22c0-.24.14-0.53,0.14-0.7a0.5,0.5,0,0,1,0-.08c0.07,0,0-.06.06-0.06h0a0,0,0,0,1,0-.06,0.17,0.17,0,0,1,.1-0.14s0-.06,0-0.08A1.75,1.75,0,0,1,95,90.82a3.18,3.18,0,0,1,.45-0.41,1.33,1.33,0,0,1,.94-0.31,1.24,1.24,0,0,1,.77.25,0.71,0.71,0,0,0,.08-0.14,0.05,0.05,0,0,0,0,0c0-.14.07-0.14,0.2-0.14a1,1,0,0,1,.63.2c-0.25.35-.13,1-0.38,1.23a0.29,0.29,0,0,1,0,.07,0.05,0.05,0,0,0,0,0s-0.32,1-.39,1a0.43,0.43,0,0,1-.08.29c0,0.38-.21.46-0.21,0.83,0,0,.39-0.32.42-0.34a19.46,19.46,0,0,0,1.51-1.6,2.33,2.33,0,0,1,.15-0.24c0.39-.24.71-0.67,1-0.83a0.37,0.37,0,0,1,.14.18,0.45,0.45,0,0,1-.08.08,3.22,3.22,0,0,1-1,1c-0.29.29-.5,0.53-0.83,0.87A5.16,5.16,0,0,1,97.91,93.32Zm-3.1,2.25a7.93,7.93,0,0,0-.74.69,1.8,1.8,0,0,1-.45.71,0.08,0.08,0,0,0,0,.06,2,2,0,0,0-.31,1.23,1.2,1.2,0,0,0,.08.45A2.37,2.37,0,0,0,94.17,98a11.53,11.53,0,0,0,.74-1v0c0-.08.11-0.15,0.11-0.22a1.19,1.19,0,0,1,.28-0.48,0.11,0.11,0,0,1,0-.06,1.61,1.61,0,0,1,.08-0.21,0.05,0.05,0,0,0,0,0,6.52,6.52,0,0,0,.46-1.15c-0.24,0-.41.39-0.64,0.45C95.1,95.44,94.82,95.37,94.82,95.58Zm1.74-5.21c-0.06.13-.53,0.2-0.53,0.29l-0.48.76s0,0,0,0v0.08a0.07,0.07,0,0,1-.06.06,0.79,0.79,0,0,1-.18.49,1.33,1.33,0,0,0-.13.63,0.71,0.71,0,0,0,.11.29,0.41,0.41,0,0,0,.18-0.11,3.21,3.21,0,0,0,1-1,0.18,0.18,0,0,1,.06-0.13l0.36-.57a1.72,1.72,0,0,0,.22-0.59,0.85,0.85,0,0,0-.25-0.25A1.37,1.37,0,0,1,96.55,90.37Z"/><path class="cls-1" d="M107.43,93.58a4.33,4.33,0,0,1-.31.35,1,1,0,0,1-.74.32c-0.25,0-.25-0.42-0.25-0.64a6.18,6.18,0,0,1,.22-1.65,1,1,0,0,1-.13.11,0.87,0.87,0,0,1-.2.27,10.76,10.76,0,0,1-1,.91,0.8,0.8,0,0,1-.42.21c-0.42-.06-0.77-0.14-0.77-0.63a0.62,0.62,0,0,1,.15-0.55,0.33,0.33,0,0,1,0-.11,0.16,0.16,0,0,1,0-.11,0.21,0.21,0,0,1,0-.08,2,2,0,0,1,.28-0.53c0-.07,0-0.1,0-0.15a0.33,0.33,0,0,1,0-.06c0.28,0,.41-1.11,1.67-1.11l0.31,0h0.07a2.38,2.38,0,0,1,.43.21,0.45,0.45,0,0,1,.15-0.28c0.15,0,.52,0,0.67.06a0.1,0.1,0,0,0,.08.08c0,0.08-.06.15-0.06,0.22a0.08,0.08,0,0,0,0,.06,15.1,15.1,0,0,0-.62,3,3.46,3.46,0,0,1,.45-0.46A11.77,11.77,0,0,0,109,91.63a5.77,5.77,0,0,1,1-.94,0.38,0.38,0,0,1,.14.18,0.49,0.49,0,0,1-.08.08,3.24,3.24,0,0,1-1,1,7.84,7.84,0,0,1-1.23,1.22,1.62,1.62,0,0,0-.32.29Zm-2.3-1.95c0-.06-0.32.91-0.32,0.91a1.48,1.48,0,0,0,.08.52,2.46,2.46,0,0,0,.67-0.63l0.49-.45a0.26,0.26,0,0,1,.17-0.25A4.73,4.73,0,0,0,106.6,91s0,0,0,0a0.19,0.19,0,0,0,.08-0.14s-0.11,0-.11-0.11l0.1-.14a1.13,1.13,0,0,0-.29-0.21C105.53,90.35,105.16,91.63,105.13,91.63Z"/><path class="cls-1" d="M114.36,92.9a2,2,0,0,1-1.25.78c-0.45,0-.34-0.43-0.39-0.55a6.62,6.62,0,0,1-.28-1.81,0.71,0.71,0,0,1,0-.24V90.78a2,2,0,0,0,0-.28,9.64,9.64,0,0,1-1,1.25c-0.07,0-.46.79-0.59,0.94a3.76,3.76,0,0,1-1,1,0.34,0.34,0,0,1-.31-0.41l0.11-.94a0.76,0.76,0,0,0,0-.18l0.07-.17V91.88a4,4,0,0,1,.14-1.12,0.18,0.18,0,0,1,0-.1V90.61c0-.39,0-0.91.27-0.91a1.41,1.41,0,0,0,.24,0c0.22,0,.22,0,0.22,0a0.75,0.75,0,0,1,.32.38,4.56,4.56,0,0,1-.08.6s0,0.1,0,.15a0.82,0.82,0,0,0-.08.41v0.17a0.52,0.52,0,0,1,0,.21v0.08c0,0.17-.08.45-0.08,0.57a0.07,0.07,0,0,0,0,.06c0.43-.49.62-0.9,1-1.39a0.1,0.1,0,0,1,.08-0.13V90.75a1.31,1.31,0,0,1,.36-0.43,0.74,0.74,0,0,1,.87-0.53c0.14,0,.28,0,0.28.14a0.84,0.84,0,0,1,0,.18,5.49,5.49,0,0,0,.11,1.36v0.1a3.27,3.27,0,0,0,.32,1.44,6.94,6.94,0,0,0,1.46-1.47c0.39-.25.71-0.69,1-0.84a0.38,0.38,0,0,1,.14.18,0.49,0.49,0,0,1-.08.08,3.23,3.23,0,0,1-1,1c-0.29.29-.5,0.53-0.83,0.87Z"/><path class="cls-1" d="M115.27,91.83a1.07,1.07,0,0,1-.21,0s-0.06,0-.06,0a1.67,1.67,0,0,1,.35-0.42,7.86,7.86,0,0,0,.57-0.66c0.36-.31.35-0.45,0.62-0.66a0.1,0.1,0,0,1,0-.06,1,1,0,0,1,.74-0.18,0.07,0.07,0,0,1,.07.07,0.07,0.07,0,0,0,0,.08v0a0.63,0.63,0,0,0,.08.13,0.15,0.15,0,0,1,0,.07l0.13,0.57a0.21,0.21,0,0,1,0,.14l0.13,0.13a0.37,0.37,0,0,0,0,.2,4.81,4.81,0,0,0,.07.62,2.11,2.11,0,0,0,.94-0.28c0.06,0,.9-0.83,1.09-0.94a0.38,0.38,0,0,1,.14.18,0.49,0.49,0,0,1-.08.08,3.1,3.1,0,0,1-1,1,3.45,3.45,0,0,1-1.08.21,2,2,0,0,1-.43,1.12,0.1,0.1,0,0,1,0,.06,1.61,1.61,0,0,1-1.19.45c-0.24-.15-0.43-0.13-0.43-0.53a0.23,0.23,0,0,1,.11-0.21,0.19,0.19,0,0,1-.06,0,3.06,3.06,0,0,1,1-.81,8.89,8.89,0,0,0-.22-1.39C116.31,90.83,115.27,91.85,115.27,91.83Zm0.94,1.68c0.36,0,.35-0.32.46-0.49a0.1,0.1,0,0,1,0-.07c0-.07,0-0.14,0-0.22a0.13,0.13,0,0,0,0-.07,0.13,0.13,0,0,0,0-.08V92.46a1.11,1.11,0,0,0-.77.78A0.3,0.3,0,0,0,116.21,93.51Z"/><path class="cls-1" d="M120.1,90.1a0.65,0.65,0,0,1,.46.13,0.76,0.76,0,0,0-.08.24,0.83,0.83,0,0,1,0,.18,2,2,0,0,1-.14.71,12.46,12.46,0,0,1-.2,1.29c0,0.22.08,0.38,0.08,0.62a3.17,3.17,0,0,1,.42-0.49,5.31,5.31,0,0,1,.31-0.63c0.27-.15.53-1.2,0.74-1.2a0.07,0.07,0,0,0-.07-0.06,1.09,1.09,0,0,1,.52-0.36,0.25,0.25,0,0,1,.2.28,3.88,3.88,0,0,1-.13.5,0.11,0.11,0,0,1,0,0c-0.1.1-.15,1-0.27,1l0,0a0.78,0.78,0,0,0-.07.32,0.4,0.4,0,0,0,0,.13,3.1,3.1,0,0,0-.13.8c0,0.1.07,0.13,0.17,0.13,0.57,0,.28-0.66.63-0.85,0,0,0,0,0,0,0.06-.17.48-1,0.49-1a11.11,11.11,0,0,0,.5-1.71,0.39,0.39,0,0,1,.29-0.11l0.31,0a2,2,0,0,0,1-.18h0.08l0.27,0a0.17,0.17,0,0,0,.08.11,0.22,0.22,0,0,1-.11.11h0a1.23,1.23,0,0,1-.83.21h-0.21v0l-0.14,0-0.29,0a0.93,0.93,0,0,0-.42.78c-0.07.24-.15,0.41-0.21,0.58a0,0,0,0,0,0,0,3.24,3.24,0,0,0-.18.31v0.06a5.33,5.33,0,0,1-.62,1.32,0.64,0.64,0,0,0,0,.07,2,2,0,0,1-.34.64,2.53,2.53,0,0,1-.92.2,0.4,0.4,0,0,1-.32-0.46,0.46,0.46,0,0,1,0-.2,1,1,0,0,1-.06-0.38v-0.8a0.13,0.13,0,0,0,0-.1c-0.49.64-.74,1.36-1.06,1.36l-0.14,0-0.29,0a0.14,0.14,0,0,0-.1-0.06h0a0.83,0.83,0,0,1-.24-0.59l0.06-.06a1.56,1.56,0,0,1,0-.25,13.18,13.18,0,0,1,.22-1.78,0.05,0.05,0,0,1,0,0c0-.13.11-0.38,0.11-0.45A0.45,0.45,0,0,1,120.1,90.1Z"/><path class="cls-1" d="M127,93.17l-0.35.27a2.49,2.49,0,0,1-.83.35,1,1,0,0,1-.31.07,0.14,0.14,0,0,1-.13-0.06,0.6,0.6,0,0,1-.22,0,0.73,0.73,0,0,1-.73-0.74c0-.17.13-0.5,0.13-0.73a4.27,4.27,0,0,1,.24-0.55c0-.46.73-1,0.79-1.27a0.52,0.52,0,0,0,.27-0.25,2.59,2.59,0,0,1,.77-0.24,0.74,0.74,0,0,1,.74.7,0.91,0.91,0,0,1-.55.73,1.11,1.11,0,0,1-.5.29l-0.77.45a1.39,1.39,0,0,0-.18.8c0,0.2,0,.38.17,0.38h0.1l0.08,0a1.46,1.46,0,0,0,.92-0.41,6.07,6.07,0,0,0,.53-0.41,8.78,8.78,0,0,0,1-1c0.39-.25.66-0.71,0.94-0.87a0.37,0.37,0,0,1,.14.18,0.45,0.45,0,0,1-.08.08,3.29,3.29,0,0,1-.92,1l-0.85.87A1.79,1.79,0,0,1,127,93.17Zm-1-1.9a1.7,1.7,0,0,0-.29.55,2.34,2.34,0,0,0,1.18-.7,0.64,0.64,0,0,0,.21-0.41,0.26,0.26,0,0,0-.22-0.31,1,1,0,0,0-.34.17,0.09,0.09,0,0,1-.07,0A2.09,2.09,0,0,0,126,91.27Z"/><path class="cls-1" d="M131,93.7a0.69,0.69,0,0,0-.39.32,0.83,0.83,0,0,1-.24.06s0,0,0,0a0.1,0.1,0,0,1-.07,0c-0.6,0-.45-0.24-0.62-0.32a0.34,0.34,0,0,0,.06-0.1,0.48,0.48,0,0,1,0-.14,7.35,7.35,0,0,1,.31-1.33l0.5-1.18a1.58,1.58,0,0,0,.18-0.35h-0.07a5.88,5.88,0,0,1-1.21.38,0.41,0.41,0,0,1-.2,0,0.62,0.62,0,0,1-.11.1c-0.2.22-.83,0.69-0.83,0.73a1.15,1.15,0,0,1-.63.38V92.15c0-.24.63-0.45,0.71-0.73a3.55,3.55,0,0,0,.66-0.73V90.63a1.39,1.39,0,0,1,.56-1,0.21,0.21,0,0,1,.15-0.06,0.28,0.28,0,0,1,.35.31c-0.13.08-.11,0.22-0.17,0.22v0c0,0.14-.28.39-0.28,0.5,0.25,0,.66-0.31.87-0.31a1.64,1.64,0,0,1,.84-0.39c0.2,0,.45,0,0.45.2a0.16,0.16,0,0,1-.08.13,2.36,2.36,0,0,1-.34.69,0.07,0.07,0,0,0,0,.07,6.82,6.82,0,0,0-.41.78,5.46,5.46,0,0,0-.24,1.08,0.06,0.06,0,0,1,0,0,2.81,2.81,0,0,0,.07.42,0.33,0.33,0,0,0,.24-0.13c0.21,0,.56-0.6.91-0.67a3.78,3.78,0,0,1,.85-1,5.77,5.77,0,0,1,1-.94,0.38,0.38,0,0,1,.14.18,0.49,0.49,0,0,1-.08.08,3.22,3.22,0,0,1-1,1,10,10,0,0,1-1.22,1.22A5,5,0,0,0,131,93.7Z"/><path class="cls-1" d="M132.93,92a1,1,0,0,1-.2,0s-0.05,0-.05,0a1.53,1.53,0,0,1,.32-0.39,7.26,7.26,0,0,0,.53-0.61c0.34-.29.33-0.42,0.57-0.61a0.1,0.1,0,0,1,0-.05,0.9,0.9,0,0,1,.69-0.17,0.07,0.07,0,0,1,.07.06,0.06,0.06,0,0,0,0,.08v0a0.63,0.63,0,0,0,.08.12,0.13,0.13,0,0,1,0,.06L135,91a0.19,0.19,0,0,1,0,.13l0.12,0.12a0.34,0.34,0,0,0,0,.18,4.45,4.45,0,0,0,.07.57,2,2,0,0,0,.87-0.26c0.05,0,.83-0.77,1-0.87a0.35,0.35,0,0,1,.13.17,0.45,0.45,0,0,1-.08.08,2.87,2.87,0,0,1-.92.88,3.22,3.22,0,0,1-1,.2,1.86,1.86,0,0,1-.4,1,0.09,0.09,0,0,1,0,.05,1.5,1.5,0,0,1-1.11.42c-0.22-.14-0.4-0.12-0.4-0.49a0.21,0.21,0,0,1,.1-0.19,0.2,0.2,0,0,1-.05,0,2.83,2.83,0,0,1,.92-0.75A8.35,8.35,0,0,0,134,91C133.89,91,132.93,92,132.93,92Zm0.87,1.56c0.34,0,.33-0.3.43-0.46a0.09,0.09,0,0,1,0-.07c0-.06,0-0.13,0-0.21a0.12,0.12,0,0,0,0-.06,0.12,0.12,0,0,0,0-.08v-0.1a1,1,0,0,0-.71.73A0.28,0.28,0,0,0,133.8,93.52Z"/><path class="cls-1" d="M76.94,16.68c0.32-.24.53-0.61,0.77-0.74a0.33,0.33,0,0,1,.12.16,0.42,0.42,0,0,1-.07.07A3.18,3.18,0,0,1,77,17c-0.25.25-.49,0.47-0.78,0.78l0,0a1.77,1.77,0,0,1-1.1.68c-0.4,0-.4-0.29-0.4-0.52v0a5.13,5.13,0,0,1,.07-0.58V17.22a0.44,0.44,0,0,1,0-.13l0-.06a0.26,0.26,0,0,0,.07-0.12,0.16,0.16,0,0,1,0-.06,0.17,0.17,0,0,0,0,0l0.12-.32a0.14,0.14,0,0,0,0,0h0s0,0,0-.06a0.15,0.15,0,0,0,0-.08,0.06,0.06,0,0,0,0,0s0-.07,0-0.1l0-.16V15.75c0.13-.13-0.07-0.34.52-0.34a0.37,0.37,0,0,1,.34.12c0,0.06,0,.11,0,0.16a0.12,0.12,0,0,0,0,.06,1.88,1.88,0,0,0-.13.68c0,0.43-.16.46-0.18,1a5.8,5.8,0,0,0,0,.64,3.71,3.71,0,0,0,1.19-1A1.76,1.76,0,0,0,76.94,16.68Zm-1.63-3.35a0.76,0.76,0,0,1,.36-0.41,0.42,0.42,0,0,1,.43.47,2.25,2.25,0,0,1-.1.35,0.16,0.16,0,0,0,0,.07c-0.06,0,0,0,0,.06a0.38,0.38,0,0,0-.17,0,0.12,0.12,0,0,0-.14.1C75.37,13.85,75.42,13.64,75.31,13.33Z"/><path class="cls-1" d="M79,11.7l0,0a0.62,0.62,0,0,0-.35.41H78.65a1.51,1.51,0,0,1-.62.44,0.2,0.2,0,0,1-.18-0.1,0.58,0.58,0,0,1,.36-0.31,1.08,1.08,0,0,1,.25-0.35,0.39,0.39,0,0,1-.25-0.37,0.5,0.5,0,0,1,.3-0.38,0.46,0.46,0,0,1,.56.34,0.92,0.92,0,0,1,.07.22A0.11,0.11,0,0,0,79,11.7Z"/><path class="cls-1" d="M87.24,16.75a4.89,4.89,0,0,1,.89-0.8,0.32,0.32,0,0,1,.12.16,0.42,0.42,0,0,1-.07.07,2.76,2.76,0,0,1-.82.86,7.93,7.93,0,0,1-1.06,1,2.39,2.39,0,0,1-.9.48,0.37,0.37,0,0,1-.32-0.46c0-.35-0.23-1.08-0.23-1.38a0.93,0.93,0,0,1,0-.18,1.15,1.15,0,0,1,0-.28V16.11a2.84,2.84,0,0,0,0-.29,2.27,2.27,0,0,0-.44.47l-0.18.32a2.28,2.28,0,0,0-.19.23,7.73,7.73,0,0,1-1.1,1.45,0.7,0.7,0,0,1-.48.18,0.24,0.24,0,0,1-.28-0.19c0-.07,0-0.17,0-0.28A16.37,16.37,0,0,1,82,16.11a7.48,7.48,0,0,0-.66.72V16.9C81.21,17,81,17.34,81,17.34a0.05,0.05,0,0,1,0,0,0.78,0.78,0,0,1-.26.4,0.52,0.52,0,0,1,0,.13,4.26,4.26,0,0,1-.64.66,0.28,0.28,0,0,1-.26-0.34c0-.25.11-0.53,0.11-0.8V17.2L80,17.06V16.94a3.38,3.38,0,0,1,.13-1,0.35,0.35,0,0,1,0-.11c0-.11,0-0.23,0-0.36,0-.29-0.06-0.43.26-0.43a2.36,2.36,0,0,1,.3,0,0.16,0.16,0,0,0,0,0,0.3,0.3,0,0,1,.26.3,4.31,4.31,0,0,1-.08.55s0,0.08,0,.13a3.36,3.36,0,0,0-.11.66,0.21,0.21,0,0,1,0,.08c0,0.08,0,.17,0,0.23a0.09,0.09,0,0,0,0,.06l0.73-.84a1.56,1.56,0,0,1,.54-0.74c0-.19.1-0.19,0.36-0.19h0a0.24,0.24,0,0,0,.14,0c0.13,0.77.19,1.62,0.26,2.43v0.11c0.52-.43.77-1.12,1.27-1.61,0,0,0-.13.07-0.13v0a1.14,1.14,0,0,1,.32-0.38,0.68,0.68,0,0,1,.77-0.46c0.12,0,.22,0,0.22.14v0.13a7.82,7.82,0,0,0,.25,2.28,0.51,0.51,0,0,0,.08.22c0.18-.06.32-0.3,0.49-0.35C86.75,17.37,86.9,17,87.24,16.75Z"/><path class="cls-1" d="M93,18.2c-0.26,0-.4.52-0.62,0.56a0.81,0.81,0,0,1-.29.24,0.16,0.16,0,0,1,0,.07,0.19,0.19,0,0,1-.06.13,0.09,0.09,0,0,1,0,0,0,0,0,0,0,0,0,0.15,0.15,0,0,0,0,.06h0a0.15,0.15,0,0,1,0,.07c0,0.12-.23.62-0.23,0.72a1.15,1.15,0,0,1-.11.36,0.73,0.73,0,0,0-.1.22s0,0,0,0a1.4,1.4,0,0,1-.18.32,0,0,0,0,1,0,0,1.09,1.09,0,0,0-.1.23v0c-0.1.07-.34,0.13-0.38,0.18h0.22a0.16,0.16,0,0,0,0,0,2.53,2.53,0,0,0-.43.72,2.3,2.3,0,0,1-.25.36,5.93,5.93,0,0,1-.62.47,0.49,0.49,0,0,1-.32.17,0,0,0,0,0,0,0l-0.07,0A3.68,3.68,0,0,1,89,23a3.21,3.21,0,0,1-.11-0.53,0.11,0.11,0,0,1,0-.07,0.49,0.49,0,0,1,0-.18A1.26,1.26,0,0,1,89,21.56V21.47a0.3,0.3,0,0,1,.13-0.2s0,0,0,0,0.2-.32.23-0.32a0.19,0.19,0,0,1,.11-0.11v0s0,0,0,0v0c0.49-.46,1.65-1.56,1.65-1.6l0.06,0a0.27,0.27,0,0,1,.13-0.1,0.09,0.09,0,0,1,0-.06c0-.29.24-0.56,0.25-0.82a1.65,1.65,0,0,1,.16-0.32,0.17,0.17,0,0,1,0,0c0-.16.23-0.53,0.29-0.77,0.18-.82.48-1.44,0.48-1.54s0.06-.12.17-0.12a0.84,0.84,0,0,1,.54.17c-0.22.3-.11,0.82-0.32,1.06a0.26,0.26,0,0,1,0,.06,0,0,0,0,0,0,0s-0.28.86-.33,0.86a0.37,0.37,0,0,1-.07.25c0,0.32-.18.4-0.18,0.71a1.86,1.86,0,0,0,.36-0.29,4.23,4.23,0,0,0,.72-0.74A7.84,7.84,0,0,1,94.88,16a0.31,0.31,0,0,1,.12.16,0.41,0.41,0,0,1-.07.07,2.76,2.76,0,0,1-.82.86c-0.25.25-.43,0.46-0.71,0.74A4.6,4.6,0,0,1,93,18.2Zm-2.63,1.94a6.53,6.53,0,0,0-.64.59,1.54,1.54,0,0,1-.38.61,0.07,0.07,0,0,0,0,0,1.75,1.75,0,0,0-.28,1.08,0.79,0.79,0,0,0,.08.38,2.32,2.32,0,0,0,.62-0.68,9.66,9.66,0,0,0,.63-0.88v0c0-.07.1-0.13,0.1-0.19a1,1,0,0,1,.24-0.41,0.09,0.09,0,0,1,0,0,1.36,1.36,0,0,1,.07-0.18,0,0,0,0,0,0,0,6.35,6.35,0,0,0,.41-1c-0.2,0-.33.32-0.54,0.37C90.62,20,90.38,20,90.38,20.14Zm2.53-6.81a0.76,0.76,0,0,1,.36-0.41,0.42,0.42,0,0,1,.43.47,2.25,2.25,0,0,1-.1.35,0.16,0.16,0,0,0,0,.07c-0.06,0,0,0,0,.06a0.38,0.38,0,0,0-.17,0,0.12,0.12,0,0,0-.14.1C93,13.85,93,13.64,92.91,13.33Z"/><path class="cls-1" d="M97.69,18a1.24,1.24,0,0,1-.71.46c-0.41,0-.44-0.55-0.44-0.77v-0.1a2.58,2.58,0,0,1,.11-0.68,9.84,9.84,0,0,1-.84,1.25c-0.13.16-.42,0.47-0.42,0.48a1.62,1.62,0,0,1-.43.25,0.89,0.89,0,0,0-.24,0,0.77,0.77,0,0,1-.24-0.47,3.29,3.29,0,0,1,.1-0.7,0.15,0.15,0,0,0,0-.07,0.29,0.29,0,0,0,.06-0.12,0.18,0.18,0,0,1,0-.08,3.59,3.59,0,0,1,.22-0.92c0.1-.33,0-1,0.31-1a0.18,0.18,0,0,1,.12,0,0.49,0.49,0,0,1,.18,0,0.78,0.78,0,0,1,.25.22,0.06,0.06,0,0,1-.06,0,2.79,2.79,0,0,0-.22.71,0.19,0.19,0,0,1,0,.07,0,0,0,0,1,0,0,2.25,2.25,0,0,1-.18.6,0.16,0.16,0,0,1,0,0c0,0.13-.12.48-0.12,0.74a0.48,0.48,0,0,0,0,.13,0.18,0.18,0,0,0,0,.12,0.69,0.69,0,0,0,0,.23h0.1a5.34,5.34,0,0,0,1.19-1.77s0.24-.58.29-0.58a0.09,0.09,0,0,1,0,0c0.18-.25,0-0.48.58-0.48a1.64,1.64,0,0,1,.12.13,2.67,2.67,0,0,1-.2,1,0.44,0.44,0,0,1,0,.12l0,0.24c0,0.07,0,.14,0,0.2s-0.06.2-.06,0.36a0.42,0.42,0,0,0,.1.32A5.9,5.9,0,0,1,98,17.26a2.24,2.24,0,0,1,.48-0.5,4.92,4.92,0,0,1,.89-0.8,0.32,0.32,0,0,1,.12.16,0.41,0.41,0,0,1-.07.07,2.77,2.77,0,0,1-.82.86l-0.38.4A3,3,0,0,0,97.69,18Z"/><path class="cls-1" d="M98.61,16.92l-0.18,0s0,0,0,0a1.41,1.41,0,0,1,.3-0.36A6.86,6.86,0,0,0,99.18,16c0.31-.26.3-0.38,0.53-0.56a0.09,0.09,0,0,1,0,0,0.83,0.83,0,0,1,.64-0.16,0.06,0.06,0,0,1,.06.06,0,0,0,0,1,0,0,0,0,0,0,1,0,0v0a0.57,0.57,0,0,0,.07.11,0.13,0.13,0,0,1,0,.06l0.11,0.49a0.17,0.17,0,0,1,0,.12l0.11,0.11a0.31,0.31,0,0,0,0,.17,4.12,4.12,0,0,0,.06.53,1.79,1.79,0,0,0,.8-0.24s0.77-.71.94-0.8a0.31,0.31,0,0,1,.12.16,0.42,0.42,0,0,1-.07.07,2.66,2.66,0,0,1-.85.82,3,3,0,0,1-.92.18,1.72,1.72,0,0,1-.37,1,0.09,0.09,0,0,1,0,0,1.38,1.38,0,0,1-1,.38c-0.2-.13-0.37-0.11-0.37-0.46a0.2,0.2,0,0,1,.1-0.18,0.15,0.15,0,0,1,0,0,2.62,2.62,0,0,1,.85-0.7A7.7,7.7,0,0,0,99.62,16C99.5,16.06,98.61,16.94,98.61,16.92Zm0.8,1.44c0.31,0,.3-0.28.4-0.42a0.09,0.09,0,0,1,0-.06c0-.06,0-0.12,0-0.19a0.11,0.11,0,0,0,0-.06,0.11,0.11,0,0,0,0-.07v-0.1a1,1,0,0,0-.66.67A0.26,0.26,0,0,0,99.42,18.36Z"/><path class="cls-1" d="M102.38,13.62a0.28,0.28,0,0,1-.14,0,0.26,0.26,0,0,1-.28-0.14c0-.11.12-0.11,0.19-0.11,0.52,0,.8.19,1.3,0.19a3.94,3.94,0,0,0,.46-1.19c0-.07,0-0.13,0-0.18s0.07-.17.55-0.17c0.16,0,.3,0,0.3.14l-0.12.31a2.5,2.5,0,0,0-.2.64,0.8,0.8,0,0,1-.06.23s0,0,0,0a0.84,0.84,0,0,0-.14.37,2.06,2.06,0,0,0,.74.17,2.8,2.8,0,0,0,.47,0c0.34,0,.53-0.14.9-0.14a12.57,12.57,0,0,0,2-1,0.21,0.21,0,0,1,.14.22,0.2,0.2,0,0,1,0,.06,0.11,0.11,0,0,1,0,.06,0.09,0.09,0,0,1-.1,0,0.2,0.2,0,0,0-.07.07l-0.62.24v0a5.12,5.12,0,0,1-1.51.56,1.66,1.66,0,0,1-.79.13,0.37,0.37,0,0,0-.25-0.07c-0.17,0-.38,0-0.59,0a0.65,0.65,0,0,1-.38-0.1,5.1,5.1,0,0,1-.24,1.08c0,0.23-.12.36-0.12,0.52s-0.17.53-.17,0.8l0,0.16c0,0.08-.08.2-0.08,0.3,0,0.28,0,.37,0,0.48a0.55,0.55,0,0,0,0,.1,0.41,0.41,0,0,1,0,.17,1.74,1.74,0,0,0,.19.62,2.08,2.08,0,0,0,.6-0.23,0.37,0.37,0,0,1,.24-0.2,3.31,3.31,0,0,1,.48-0.35l0,0a2.94,2.94,0,0,1,.68-0.76,4.92,4.92,0,0,1,.89-0.8,0.32,0.32,0,0,1,.12.16,0.42,0.42,0,0,1-.07.07,2.76,2.76,0,0,1-.82.86A6,6,0,0,1,104,18.68a0.55,0.55,0,0,0-.12.11c-0.1.1-.25,0-0.29,0.17a0.26,0.26,0,0,1-.07,0l-0.29,0a0.85,0.85,0,0,1-.43-0.35,2.17,2.17,0,0,0-.1-0.6,0.52,0.52,0,0,0,0-.14,0.13,0.13,0,0,0,0-.08,0.17,0.17,0,0,0,0-.11,0.18,0.18,0,0,0,0-.12c0-.3.06-0.65,0.06-1a2,2,0,0,0,.11-0.7,4.31,4.31,0,0,1-.4.4c-0.17.19-.71,0.59-0.71,0.62a1,1,0,0,1-.54.32v0a0.12,0.12,0,0,1,.07-0.1c0.08-.2.48-0.32,0.54-0.53a4.13,4.13,0,0,0,.49-0.56,2.1,2.1,0,0,0,.35-0.41,1.29,1.29,0,0,1,.35-0.31,8.65,8.65,0,0,0,.38-1.46A7.66,7.66,0,0,1,102.38,13.62Z"/><path class="cls-1" d="M112.78,18.42a3.51,3.51,0,0,1-.26.3,0.9,0.9,0,0,1-.64.28c-0.22,0-.22-0.36-0.22-0.55a5.29,5.29,0,0,1,.19-1.42,0.83,0.83,0,0,1-.11.1,0.75,0.75,0,0,1-.17.23,9.25,9.25,0,0,1-.82.78,0.68,0.68,0,0,1-.36.18c-0.36,0-.66-0.12-0.66-0.54a0.53,0.53,0,0,1,.13-0.47,0.28,0.28,0,0,1,0-.1,0.13,0.13,0,0,1,0-.1,0.16,0.16,0,0,1,0-.07,1.72,1.72,0,0,1,.24-0.46c0-.06,0-0.08,0-0.13a0.24,0.24,0,0,1,0,0c0.24,0,.35-0.95,1.43-0.95l0.26,0h0.06a2.15,2.15,0,0,1,.37.18,0.38,0.38,0,0,1,.13-0.24c0.13,0,.44,0,0.58,0a0.09,0.09,0,0,0,.07.07c0,0.07,0,.13,0,0.19a0.07,0.07,0,0,0,0,0,12.83,12.83,0,0,0-.53,2.59,3.06,3.06,0,0,1,.38-0.4,9.9,9.9,0,0,0,1.25-1.21,4.92,4.92,0,0,1,.89-0.8,0.31,0.31,0,0,1,.12.16,0.42,0.42,0,0,1-.07.07,2.74,2.74,0,0,1-.82.86,6.67,6.67,0,0,1-1.05,1,1.36,1.36,0,0,0-.28.25Zm-2-1.67s-0.28.78-.28,0.78a1.28,1.28,0,0,0,.07.44,2.11,2.11,0,0,0,.58-0.54l0.42-.38a0.23,0.23,0,0,1,.14-0.22,4,4,0,0,0,.32-0.63s0,0,0,0a0.16,0.16,0,0,0,.07-0.12S112,16,112,16l0.08-.12a1,1,0,0,0-.25-0.18C111.15,15.66,110.84,16.75,110.82,16.75Z"/></svg>